<svg width="156" height="450" viewBox="0 0 156 450" fill="none" xmlns="http://www.w3.org/2000/svg">
<path d="M105.743 448.73C106.975 449.619 108.694 449.34 109.582 448.109L124.06 428.035C124.948 426.803 124.67 425.084 123.438 424.196C122.206 423.307 120.488 423.586 119.599 424.818L106.73 442.661L88.8867 429.792C87.6549 428.903 85.9361 429.182 85.0477 430.414C84.1593 431.645 84.4376 433.364 85.6695 434.253L105.743 448.73ZM109.582 1.89137C108.694 0.659536 106.975 0.381151 105.743 1.26957L85.6695 15.7473C84.4376 16.6357 84.1593 18.3545 85.0477 19.5863C85.9361 20.8182 87.6549 21.0966 88.8867 20.2081L106.73 7.33906L119.599 25.1825C120.488 26.4143 122.206 26.6927 123.438 25.8043C124.67 24.9158 124.948 23.197 124.06 21.9652L109.582 1.89137ZM110.067 446.06C97.3494 367.543 90.75 307.027 90.75 225H85.25C85.25 307.4 91.8876 368.221 104.637 446.94L110.067 446.06ZM90.75 225C90.75 142.973 97.3495 82.4574 110.067 3.93967L104.637 3.06033C91.8876 81.7794 85.25 142.6 85.25 225H90.75Z" fill="white"/>
<rect width="156" height="241" transform="translate(0 104)" fill="black"/>
<path d="M29.579 193.144C39.375 193.144 44.955 187.44 44.955 179.132V147.14H40.925L40.367 152.844C38.135 148.876 33.857 146.396 28.587 146.396C19.907 146.396 13.583 153.216 13.583 163.074C13.583 172.746 19.845 179.442 28.587 179.442C33.609 179.442 37.577 177.21 39.871 173.8V179.132C39.871 184.774 36.337 188.804 29.579 188.804C23.813 188.804 19.845 185.828 19.845 181.922H14.699C14.699 188.866 20.713 193.144 29.579 193.144ZM29.331 174.978C23.193 174.978 18.915 170.08 18.915 163.012C18.915 155.82 23.193 150.86 29.331 150.86C35.531 150.86 39.871 155.82 39.871 162.888C39.871 170.018 35.531 174.978 29.331 174.978ZM58.5475 180V162.764C58.5475 156.006 62.5775 152.038 69.5215 152.038H70.6375V146.954H69.5215C64.0655 146.954 60.2215 149.186 58.1135 153.402L57.4935 147.14H53.4015V180H58.5475ZM86.4059 180.496C92.1099 180.496 95.8299 178.14 97.7519 174.358V175.35C97.7519 178.388 99.6119 180 103.146 180H106.06V175.784H104.2C103.084 175.784 102.526 175.226 102.526 174.172V158.176C102.526 151.232 97.3179 146.396 89.1959 146.396C81.3839 146.396 75.5559 150.922 74.9359 157.37H80.0199C80.5779 153.464 84.2979 150.798 89.0719 150.798C94.0319 150.798 97.4419 153.712 97.5039 157.866C97.4419 160.532 93.1019 160.47 88.0799 160.966C81.5079 161.648 74.1919 163.074 74.1919 170.638C74.1919 176.652 78.9659 180.496 86.4059 180.496ZM87.1499 176.094C82.4379 176.094 79.3379 173.924 79.3379 170.514C79.3379 166.298 83.8639 165.678 88.3899 165.182C92.4199 164.748 96.0779 164.376 97.5039 162.454V166.732C97.5039 172.188 93.2879 176.094 87.1499 176.094ZM128.693 180.682C137.373 180.682 143.449 173.614 143.449 163.384C143.449 153.34 137.373 146.396 128.693 146.396C123.733 146.396 119.579 148.69 117.161 152.286V133.5H112.015V180H116.107L116.665 173.738C118.897 178.016 123.299 180.682 128.693 180.682ZM127.887 176.218C121.625 176.218 117.161 170.824 117.161 163.136C117.161 155.882 121.625 150.86 127.825 150.86C133.963 150.86 138.117 156.006 138.117 163.384C138.117 170.948 133.963 176.218 127.887 176.218ZM46.5242 240.4C51.1242 240.4 54.1242 238.5 55.6742 235.45V236.25C55.6742 238.7 57.1742 240 60.0242 240H62.3742V236.6H60.8742C59.9742 236.6 59.5242 236.15 59.5242 235.3V222.4C59.5242 216.8 55.3242 212.9 48.7742 212.9C42.4742 212.9 37.7742 216.55 37.2742 221.75H41.3742C41.8242 218.6 44.8242 216.45 48.6742 216.45C52.6742 216.45 55.4242 218.8 55.4742 222.15C55.4242 224.3 51.9242 224.25 47.8742 224.65C42.5742 225.2 36.6742 226.35 36.6742 232.45C36.6742 237.3 40.5242 240.4 46.5242 240.4ZM47.1242 236.85C43.3242 236.85 40.8242 235.1 40.8242 232.35C40.8242 228.95 44.4742 228.45 48.1242 228.05C51.3742 227.7 54.3242 227.4 55.4742 225.85V229.3C55.4742 233.7 52.0742 236.85 47.1242 236.85ZM71.177 240V223.9C71.227 219.85 74.127 216.55 78.877 216.55C82.877 216.55 85.277 218.9 85.277 222.6V240H89.427V222.45C89.427 216.6 85.627 212.9 79.927 212.9C75.977 212.9 72.527 214.75 70.727 217.55L70.327 213.5H67.027V240H71.177ZM106.633 240.55C110.983 240.55 114.483 238.35 116.233 234.9L116.683 240H119.983V202.5H115.833V217.45C113.933 214.65 110.583 212.9 106.583 212.9C99.4832 212.9 94.5832 218.5 94.5832 226.6C94.5832 234.85 99.5332 240.55 106.633 240.55ZM107.283 236.95C102.333 236.95 98.8832 232.7 98.8832 226.6C98.8832 220.6 102.433 216.45 107.533 216.45C112.433 216.45 115.833 220.55 115.833 226.5C115.833 232.65 112.333 236.95 107.283 236.95ZM28.4645 306.682C33.8585 306.682 38.1985 303.954 40.3685 299.676L40.9265 306H45.0185V259.5H39.8725V278.038C37.5165 274.566 33.3625 272.396 28.4025 272.396C19.5985 272.396 13.5225 279.34 13.5225 289.384C13.5225 299.614 19.6605 306.682 28.4645 306.682ZM29.2705 302.218C23.1325 302.218 18.8545 296.948 18.8545 289.384C18.8545 281.944 23.2565 276.798 29.5805 276.798C35.6565 276.798 39.8725 281.882 39.8725 289.26C39.8725 296.886 35.5325 302.218 29.2705 302.218ZM58.7897 306V288.764C58.7897 282.006 62.8197 278.038 69.7637 278.038H70.8797V272.954H69.7637C64.3077 272.954 60.4637 275.186 58.3557 279.402L57.7357 273.14H53.6437V306H58.7897ZM86.6481 306.496C92.3521 306.496 96.0721 304.14 97.9941 300.358V301.35C97.9941 304.388 99.8541 306 103.388 306H106.302V301.784H104.442C103.326 301.784 102.768 301.226 102.768 300.172V284.176C102.768 277.232 97.5601 272.396 89.4381 272.396C81.6261 272.396 75.7981 276.922 75.1781 283.37H80.2621C80.8201 279.464 84.5401 276.798 89.3141 276.798C94.2741 276.798 97.6841 279.712 97.7461 283.866C97.6841 286.532 93.3441 286.47 88.3221 286.966C81.7501 287.648 74.4341 289.074 74.4341 296.638C74.4341 302.652 79.2081 306.496 86.6481 306.496ZM87.3921 302.094C82.6801 302.094 79.5801 299.924 79.5801 296.514C79.5801 292.298 84.1061 291.678 88.6321 291.182C92.6621 290.748 96.3201 290.376 97.7461 288.454V292.732C97.7461 298.188 93.5301 302.094 87.3921 302.094ZM126.393 319.144C136.189 319.144 141.769 313.44 141.769 305.132V273.14H137.739L137.181 278.844C134.949 274.876 130.671 272.396 125.401 272.396C116.721 272.396 110.397 279.216 110.397 289.074C110.397 298.746 116.659 305.442 125.401 305.442C130.423 305.442 134.391 303.21 136.685 299.8V305.132C136.685 310.774 133.151 314.804 126.393 314.804C120.627 314.804 116.659 311.828 116.659 307.922H111.513C111.513 314.866 117.527 319.144 126.393 319.144ZM126.145 300.978C120.007 300.978 115.729 296.08 115.729 289.012C115.729 281.82 120.007 276.86 126.145 276.86C132.345 276.86 136.685 281.82 136.685 288.888C136.685 296.018 132.345 300.978 126.145 300.978Z" fill="white"/>
</svg>
