<?xml version="1.0" encoding="UTF-8"?>
<svg id="Layer_1" data-name="Layer 1" xmlns="http://www.w3.org/2000/svg" viewBox="0 0 328 340">
  <defs>
    <style>
      .cls-1 {
        letter-spacing: -.01em;
      }

      .cls-2 {
        letter-spacing: 0em;
      }

      .cls-3 {
        stroke-miterlimit: 10;
      }

      .cls-3, .cls-4, .cls-5, .cls-6, .cls-7 {
        stroke: #fff;
      }

      .cls-8, .cls-9 {
        fill: #fff;
      }

      .cls-9 {
        font-family: PPMori-Regular, 'PP Mori';
        font-size: 10px;
      }

      .cls-10 {
        letter-spacing: -.01em;
      }

      .cls-11 {
        letter-spacing: -.01em;
      }

      .cls-5, .cls-7 {
        fill: none;
      }

      .cls-6, .cls-7 {
        stroke-linecap: round;
      }
    </style>
  </defs>
  <path class="cls-8" d="m301.35,49.35c.2-.2.2-.51,0-.71l-3.18-3.18c-.2-.2-.51-.2-.71,0-.19.2-.19.51,0,.71l2.83,2.83-2.83,2.83c-.19.2-.19.51,0,.71.2.2.51.2.71,0l3.18-3.18ZM59.08,169.5c.28,0,.5-.22.5-.5s-.22-.5-.5-.5v1Zm2.17-1c-.28,0-.5.22-.5.5s.22.5.5.5v-1Zm2.17,1c.28,0,.5-.22.5-.5s-.22-.5-.5-.5v1Zm2.17-1c-.28,0-.5.22-.5.5s.22.5.5.5v-1Zm2.17,1c.28,0,.5-.22.5-.5s-.22-.5-.5-.5v1Zm2.17-1c-.28,0-.5.22-.5.5s.22.5.5.5v-1Zm2.11.95c.27-.03.48-.27.45-.55-.03-.28-.27-.48-.55-.45l.1.99Zm1.73-1.36c-.26.08-.41.36-.33.62.08.26.36.41.62.33l-.29-.96Zm2.19.17c.24-.13.33-.43.2-.68-.13-.24-.43-.34-.68-.21l.47.88Zm1.08-1.92c-.21.18-.24.49-.07.7.18.21.49.24.7.07l-.63-.77Zm2.09-.68c.18-.21.14-.53-.07-.7-.21-.18-.53-.14-.7.07l.77.63Zm.26-2.18c-.13.24-.04.55.2.68.24.13.55.04.68-.21l-.88-.47Zm1.67-1.43c.08-.26-.07-.54-.33-.62-.26-.08-.54.07-.62.33l.96.29Zm-.6-2.12c-.03.27.17.52.45.55.27.03.52-.17.55-.45l-1-.1Zm1.05-1.93c0-.28-.22-.5-.5-.5s-.5.22-.5.5h1Zm-1-2c0,.28.22.5.5.5s.5-.22.5-.5h-1Zm1-2c0-.28-.22-.5-.5-.5s-.5.22-.5.5h1Zm-1-2c0,.28.22.5.5.5s.5-.22.5-.5h-1Zm1-2c0-.28-.22-.5-.5-.5s-.5.22-.5.5h1Zm-1-2c0,.28.22.5.5.5s.5-.22.5-.5h-1Zm1-2c0-.28-.22-.5-.5-.5s-.5.22-.5.5h1Zm-1-2c0,.28.22.5.5.5s.5-.22.5-.5h-1Zm1-2c0-.28-.22-.5-.5-.5s-.5.22-.5.5h1Zm-1-2c0,.28.22.5.5.5s.5-.22.5-.5h-1Zm1-2c0-.28-.22-.5-.5-.5s-.5.22-.5.5h1Zm-1-2c0,.28.22.5.5.5s.5-.22.5-.5h-1Zm1-2c0-.28-.22-.5-.5-.5s-.5.22-.5.5h1Zm-1-2c0,.28.22.5.5.5s.5-.22.5-.5h-1Zm1-2c0-.28-.22-.5-.5-.5s-.5.22-.5.5h1Zm-1-2c0,.28.22.5.5.5s.5-.22.5-.5h-1Zm1-2c0-.28-.22-.5-.5-.5s-.5.22-.5.5h1Zm-1-2c0,.28.22.5.5.5s.5-.22.5-.5h-1Zm1-2c0-.28-.22-.5-.5-.5s-.5.22-.5.5h1Zm-1-2c0,.28.22.5.5.5s.5-.22.5-.5h-1Zm1-2c0-.28-.22-.5-.5-.5s-.5.22-.5.5h1Zm-1-2c0,.28.22.5.5.5s.5-.22.5-.5h-1Zm1-2c0-.28-.22-.5-.5-.5s-.5.22-.5.5h1Zm-1-2c0,.28.22.5.5.5s.5-.22.5-.5h-1Zm1-2c0-.28-.22-.5-.5-.5s-.5.22-.5.5h1Zm-1-2c0,.28.22.5.5.5s.5-.22.5-.5h-1Zm1-2c0-.28-.22-.5-.5-.5s-.5.22-.5.5h1Zm-1-2c0,.28.22.5.5.5s.5-.22.5-.5h-1Zm1-2c0-.28-.22-.5-.5-.5s-.5.22-.5.5h1Zm-1-2c0,.28.22.5.5.5s.5-.22.5-.5h-1Zm1-2c0-.28-.22-.5-.5-.5s-.5.22-.5.5h1Zm-1-2c0,.28.22.5.5.5s.5-.22.5-.5h-1Zm1-2c0-.28-.22-.5-.5-.5s-.5.22-.5.5h1Zm-1-2c0,.28.22.5.5.5s.5-.22.5-.5h-1Zm1-2c0-.28-.22-.5-.5-.5s-.5.22-.5.5h1Zm-1-2c0,.28.22.5.5.5s.5-.22.5-.5h-1Zm1-2c0-.28-.22-.5-.5-.5s-.5.22-.5.5h1Zm-1-2c0,.28.22.5.5.5s.5-.22.5-.5h-1Zm1-2c0-.28-.22-.5-.5-.5s-.5.22-.5.5h1Zm-1-2c0,.28.22.5.5.5s.5-.22.5-.5h-1Zm1-2c0-.28-.22-.5-.5-.5s-.5.22-.5.5h1Zm-1-2c0,.28.22.5.5.5s.5-.22.5-.5h-1Zm1-2c0-.28-.22-.5-.5-.5s-.5.22-.5.5h1Zm-1-2c0,.28.22.5.5.5s.5-.22.5-.5h-1Zm1-2c0-.28-.22-.5-.5-.5s-.5.22-.5.5h1Zm-1-2c0,.28.22.5.5.5s.5-.22.5-.5h-1Zm1-2c0-.28-.22-.5-.5-.5s-.5.22-.5.5h1Zm-1-2c0,.28.22.5.5.5s.5-.22.5-.5h-1Zm1-2c0-.28-.22-.5-.5-.5s-.5.22-.5.5h1Zm-1-2c0,.28.22.5.5.5s.5-.22.5-.5h-1Zm1.05-1.93c.03-.27-.17-.52-.45-.55-.27-.03-.52.17-.55.45l1,.1Zm-.6-2.12c-.08.26.07.54.33.62.26.08.54-.07.62-.33l-.96-.29Zm1.67-1.43c.13-.24.04-.55-.2-.68-.24-.13-.55-.04-.68.2l.88.47Zm.26-2.18c-.18.21-.14.53.07.7.21.18.53.14.7-.07l-.77-.63Zm2.09-.68c.21-.18.24-.49.07-.7-.18-.21-.49-.24-.7-.07l.63.77Zm1.08-1.92c-.24.13-.33.43-.2.68.13.24.43.33.68.2l-.47-.88Zm2.19.17c.26-.08.41-.36.33-.62-.08-.26-.36-.41-.62-.33l.29.96Zm1.73-1.36c-.27.03-.48.27-.45.55.03.27.27.48.55.45l-.1-1Zm2.02.95c.28,0,.5-.22.5-.5s-.22-.5-.5-.5v1Zm1.98-1c-.28,0-.5.22-.5.5s.22.5.5.5v-1Zm1.98,1c.28,0,.5-.22.5-.5s-.22-.5-.5-.5v1Zm1.98-1c-.28,0-.5.22-.5.5s.22.5.5.5v-1Zm1.98,1c.28,0,.5-.22.5-.5s-.22-.5-.5-.5v1Zm1.98-1c-.28,0-.5.22-.5.5s.22.5.5.5v-1Zm1.98,1c.28,0,.5-.22.5-.5s-.22-.5-.5-.5v1Zm1.98-1c-.28,0-.5.22-.5.5s.22.5.5.5v-1Zm1.98,1c.28,0,.5-.22.5-.5s-.22-.5-.5-.5v1Zm1.98-1c-.28,0-.5.22-.5.5s.22.5.5.5v-1Zm1.98,1c.28,0,.5-.22.5-.5s-.22-.5-.5-.5v1Zm1.98-1c-.28,0-.5.22-.5.5s.22.5.5.5v-1Zm1.98,1c.28,0,.5-.22.5-.5s-.22-.5-.5-.5v1Zm1.98-1c-.28,0-.5.22-.5.5s.22.5.5.5v-1Zm1.98,1c.28,0,.5-.22.5-.5s-.22-.5-.5-.5v1Zm1.98-1c-.28,0-.5.22-.5.5s.22.5.5.5v-1Zm1.98,1c.28,0,.5-.22.5-.5s-.22-.5-.5-.5v1Zm1.98-1c-.28,0-.5.22-.5.5s.22.5.5.5v-1Zm1.98,1c.28,0,.5-.22.5-.5s-.22-.5-.5-.5v1Zm1.98-1c-.28,0-.5.22-.5.5s.22.5.5.5v-1Zm1.98,1c.28,0,.5-.22.5-.5s-.22-.5-.5-.5v1Zm1.98-1c-.28,0-.5.22-.5.5s.22.5.5.5v-1Zm1.98,1c.28,0,.5-.22.5-.5s-.22-.5-.5-.5v1Zm1.98-1c-.28,0-.5.22-.5.5s.22.5.5.5v-1Zm1.98,1c.28,0,.5-.22.5-.5s-.22-.5-.5-.5v1Zm1.98-1c-.28,0-.5.22-.5.5s.22.5.5.5v-1Zm1.98,1c.28,0,.5-.22.5-.5s-.22-.5-.5-.5v1Zm1.98-1c-.28,0-.5.22-.5.5s.22.5.5.5v-1Zm1.98,1c.28,0,.5-.22.5-.5s-.22-.5-.5-.5v1Zm1.98-1c-.28,0-.5.22-.5.5s.22.5.5.5v-1Zm1.98,1c.28,0,.5-.22.5-.5s-.22-.5-.5-.5v1Zm1.98-1c-.28,0-.5.22-.5.5s.22.5.5.5v-1Zm1.98,1c.28,0,.5-.22.5-.5s-.22-.5-.5-.5v1Zm1.98-1c-.28,0-.5.22-.5.5s.22.5.5.5v-1Zm1.98,1c.28,0,.5-.22.5-.5s-.22-.5-.5-.5v1Zm1.98-1c-.28,0-.5.22-.5.5s.22.5.5.5v-1Zm1.98,1c.28,0,.5-.22.5-.5s-.22-.5-.5-.5v1Zm1.98-1c-.28,0-.5.22-.5.5s.22.5.5.5v-1Zm1.98,1c.28,0,.5-.22.5-.5s-.22-.5-.5-.5v1Zm1.98-1c-.28,0-.5.22-.5.5s.22.5.5.5v-1Zm1.98,1c.28,0,.5-.22.5-.5s-.22-.5-.5-.5v1Zm1.98-1c-.28,0-.5.22-.5.5s.22.5.5.5v-1Zm1.98,1c.28,0,.5-.22.5-.5s-.22-.5-.5-.5v1Zm1.98-1c-.28,0-.5.22-.5.5s.22.5.5.5v-1Zm1.98,1c.28,0,.5-.22.5-.5s-.22-.5-.5-.5v1Zm1.98-1c-.28,0-.5.22-.5.5s.22.5.5.5v-1Zm1.98,1c.28,0,.5-.22.5-.5s-.22-.5-.5-.5v1Zm1.98-1c-.28,0-.5.22-.5.5s.22.5.5.5v-1Zm1.98,1c.28,0,.5-.22.5-.5s-.22-.5-.5-.5v1Zm1.98-1c-.28,0-.5.22-.5.5s.22.5.5.5v-1Zm1.98,1c.28,0,.5-.22.5-.5s-.22-.5-.5-.5v1Zm1.98-1c-.28,0-.5.22-.5.5s.22.5.5.5v-1Zm1.98,1c.28,0,.5-.22.5-.5s-.22-.5-.5-.5v1Zm1.98-1c-.28,0-.5.22-.5.5s.22.5.5.5v-1Zm1.98,1c.28,0,.5-.22.5-.5s-.22-.5-.5-.5v1Zm1.98-1c-.28,0-.5.22-.5.5s.22.5.5.5v-1Zm1.98,1c.28,0,.5-.22.5-.5s-.22-.5-.5-.5v1Zm1.98-1c-.28,0-.5.22-.5.5s.22.5.5.5v-1Zm1.98,1c.28,0,.5-.22.5-.5s-.22-.5-.5-.5v1Zm1.98-1c-.28,0-.5.22-.5.5s.22.5.5.5v-1Zm1.98,1c.28,0,.5-.22.5-.5s-.22-.5-.5-.5v1Zm1.98-1c-.28,0-.5.22-.5.5s.22.5.5.5v-1Zm1.98,1c.28,0,.5-.22.5-.5s-.22-.5-.5-.5v1Zm1.98-1c-.28,0-.5.22-.5.5s.22.5.5.5v-1Zm1.98,1c.28,0,.5-.22.5-.5s-.22-.5-.5-.5v1Zm1.98-1c-.28,0-.5.22-.5.5s.22.5.5.5v-1Zm1.98,1c.28,0,.5-.22.5-.5s-.22-.5-.5-.5v1Zm1.98-1c-.28,0-.5.22-.5.5s.22.5.5.5v-1Zm1.98,1c.28,0,.5-.22.5-.5s-.22-.5-.5-.5v1Zm1.98-1c-.28,0-.5.22-.5.5s.22.5.5.5v-1Zm1.98,1c.28,0,.5-.22.5-.5s-.22-.5-.5-.5v1Zm1.98-1c-.28,0-.5.22-.5.5s.22.5.5.5v-1Zm1.98,1c.28,0,.5-.22.5-.5s-.22-.5-.5-.5v1Zm1.98-1c-.28,0-.5.22-.5.5s.22.5.5.5v-1Zm1.98,1c.28,0,.5-.22.5-.5s-.22-.5-.5-.5v1Zm1.98-1c-.28,0-.5.22-.5.5s.22.5.5.5v-1Zm1.98,1c.28,0,.5-.22.5-.5s-.22-.5-.5-.5v1Zm1.98-1c-.28,0-.5.22-.5.5s.22.5.5.5v-1Zm1.98,1c.28,0,.5-.22.5-.5s-.22-.5-.5-.5v1Zm1.98-1c-.28,0-.5.22-.5.5s.22.5.5.5v-1Zm1.98,1c.28,0,.5-.22.5-.5s-.22-.5-.5-.5v1Zm1.98-1c-.28,0-.5.22-.5.5s.22.5.5.5v-1Zm1.98,1c.28,0,.5-.22.5-.5s-.22-.5-.5-.5v1Zm1.98-1c-.28,0-.5.22-.5.5s.22.5.5.5v-1Zm1.98,1c.28,0,.5-.22.5-.5s-.22-.5-.5-.5v1Zm1.98-1c-.28,0-.5.22-.5.5s.22.5.5.5v-1Zm1.98,1c.28,0,.5-.22.5-.5s-.22-.5-.5-.5v1Zm1.98-1c-.28,0-.5.22-.5.5s.22.5.5.5v-1Zm1.98,1c.28,0,.5-.22.5-.5s-.22-.5-.5-.5v1Zm1.98-1c-.28,0-.5.22-.5.5s.22.5.5.5v-1Zm1.98,1c.28,0,.5-.22.5-.5s-.22-.5-.5-.5v1Zm1.98-1c-.28,0-.5.22-.5.5s.22.5.5.5v-1Zm1.98,1c.28,0,.5-.22.5-.5s-.22-.5-.5-.5v1Zm1.98-1c-.28,0-.5.22-.5.5s.22.5.5.5v-1Zm1.98,1c.28,0,.5-.22.5-.5s-.22-.5-.5-.5v1Zm1.98-1c-.28,0-.5.22-.5.5s.22.5.5.5v-1Zm1.98,1c.28,0,.5-.22.5-.5s-.22-.5-.5-.5v1Zm1.98-1c-.28,0-.5.22-.5.5s.22.5.5.5v-1Zm1.98,1c.28,0,.5-.22.5-.5s-.22-.5-.5-.5v1Zm1.98-1c-.28,0-.5.22-.5.5s.22.5.5.5v-1Zm1.98,1c.28,0,.5-.22.5-.5s-.22-.5-.5-.5v1Zm1.98-1c-.28,0-.5.22-.5.5s.22.5.5.5v-1Zm1.98,1c.28,0,.5-.22.5-.5s-.22-.5-.5-.5v1Zm1.98-1c-.28,0-.5.22-.5.5s.22.5.5.5v-1Zm1.98,1c.28,0,.5-.22.5-.5s-.22-.5-.5-.5v1Zm1.98-1c-.28,0-.5.22-.5.5s.22.5.5.5v-1ZM58,169.5h1.08v-1h-1.08v1Zm3.25,0h2.17v-1h-2.17v1Zm4.33,0h2.17v-1h-2.17v1Zm4.33,0h1.08v-1h-1.08v1Zm1.08,0c.35,0,.69-.02,1.03-.05l-.1-.99c-.31.03-.62.04-.93.04v1Zm3.05-.45c.66-.2,1.3-.47,1.9-.79l-.47-.88c-.54.29-1.12.53-1.72.71l.29.96Zm3.61-1.93c.53-.44,1.02-.92,1.46-1.46l-.77-.63c-.4.48-.84.92-1.32,1.32l.63.77Zm2.6-3.17c.32-.6.59-1.24.79-1.9l-.96-.29c-.18.6-.42,1.18-.71,1.72l.88.47Zm1.19-3.92c.03-.34.05-.68.05-1.03h-1c0,.32-.02.63-.05.93l1,.1Zm.05-1.03v-1h-1v1h1Zm0-3v-2h-1v2h1Zm0-4v-2h-1v2h1Zm0-4v-2h-1v2h1Zm0-4v-2h-1v2h1Zm0-4v-2h-1v2h1Zm0-4v-2h-1v2h1Zm0-4v-2h-1v2h1Zm0-4v-2h-1v2h1Zm0-4v-2h-1v2h1Zm0-4v-2h-1v2h1Zm0-4v-2h-1v2h1Zm0-4v-2h-1v2h1Zm0-4v-2h-1v2h1Zm0-4v-2h-1v2h1Zm0-4v-2h-1v2h1Zm0-4v-2h-1v2h1Zm0-4v-2h-1v2h1Zm0-4v-2h-1v2h1Zm0-4v-2h-1v2h1Zm0-4v-2h-1v2h1Zm0-4v-2h-1v2h1Zm0-4v-2h-1v2h1Zm0-4v-2h-1v2h1Zm0-4v-2h-1v2h1Zm0-4v-1h-1v1h1Zm0-1c0-.31.02-.63.05-.93l-1-.1c-.03.34-.05.68-.05,1.03h1Zm.41-2.76c.18-.6.42-1.18.71-1.72l-.88-.47c-.32.6-.59,1.24-.79,1.9l.96.29Zm1.75-3.27c.4-.48.84-.92,1.32-1.32l-.63-.77c-.53.44-1.02.92-1.46,1.46l.77.63Zm2.87-2.35c.54-.29,1.12-.53,1.72-.71l-.29-.96c-.66.2-1.3.47-1.9.79l.47.88Zm3.55-1.07c.31-.03.62-.05.93-.05v-1c-.35,0-.69.02-1.03.05l.1,1Zm.93-.05h.99v-1h-.99v1Zm2.97,0h1.98v-1h-1.98v1Zm3.96,0h1.98v-1h-1.98v1Zm3.96,0h1.98v-1h-1.98v1Zm3.96,0h1.98v-1h-1.98v1Zm3.96,0h1.98v-1h-1.98v1Zm3.96,0h1.98v-1h-1.98v1Zm3.96,0h1.98v-1h-1.98v1Zm3.96,0h1.98v-1h-1.98v1Zm3.96,0h1.98v-1h-1.98v1Zm3.96,0h1.98v-1h-1.98v1Zm3.96,0h1.98v-1h-1.98v1Zm3.96,0h1.98v-1h-1.98v1Zm3.96,0h1.98v-1h-1.98v1Zm3.96,0h1.98v-1h-1.98v1Zm3.96,0h1.98v-1h-1.98v1Zm3.96,0h1.98v-1h-1.98v1Zm3.96,0h1.98v-1h-1.98v1Zm3.96,0h1.98v-1h-1.98v1Zm3.96,0h1.98v-1h-1.98v1Zm3.96,0h1.98v-1h-1.98v1Zm3.96,0h1.98v-1h-1.98v1Zm3.96,0h1.98v-1h-1.98v1Zm3.96,0h1.98v-1h-1.98v1Zm3.96,0h1.98v-1h-1.98v1Zm3.96,0h1.98v-1h-1.98v1Zm3.96,0h1.98v-1h-1.98v1Zm3.96,0h1.98v-1h-1.98v1Zm3.96,0h1.98v-1h-1.98v1Zm3.96,0h1.98v-1h-1.98v1Zm3.96,0h1.98v-1h-1.98v1Zm3.96,0h1.98v-1h-1.98v1Zm3.96,0h1.98v-1h-1.98v1Zm3.96,0h1.98v-1h-1.98v1Zm3.96,0h1.98v-1h-1.98v1Zm3.96,0h1.98v-1h-1.98v1Zm3.96,0h1.98v-1h-1.98v1Zm3.96,0h1.98v-1h-1.98v1Zm3.96,0h1.98v-1h-1.98v1Zm3.96,0h1.98v-1h-1.98v1Zm3.96,0h1.98v-1h-1.98v1Zm3.96,0h1.98v-1h-1.98v1Zm3.96,0h1.98v-1h-1.98v1Zm3.96,0h1.98v-1h-1.98v1Zm3.96,0h1.98v-1h-1.98v1Zm3.96,0h1.98v-1h-1.98v1Zm3.96,0h1.98v-1h-1.98v1Zm3.96,0h1.98v-1h-1.98v1Zm3.96,0h1.98v-1h-1.98v1Zm3.96,0h1.98v-1h-1.98v1Zm3.96,0h1.98v-1h-1.98v1Zm3.96,0h1.98v-1h-1.98v1Zm3.96,0h1.98v-1h-1.98v1Zm3.96,0h.99v-1h-.99v1Z"/>
  <path class="cls-8" d="m280.85,289.65c.2.2.2.51,0,.71l-3.18,3.18c-.2.19-.51.19-.71,0-.19-.2-.19-.51,0-.71l2.83-2.83-2.83-2.83c-.19-.2-.19-.51,0-.71.2-.19.51-.19.71,0l3.18,3.18ZM59.08,168.5c.28,0,.5.22.5.5s-.22.5-.5.5v-1Zm2.17,1c-.28,0-.5-.22-.5-.5s.22-.5.5-.5v1Zm2.17-1c.28,0,.5.22.5.5s-.22.5-.5.5v-1Zm2.17,1c-.28,0-.5-.22-.5-.5s.22-.5.5-.5v1Zm2.17-1c.28,0,.5.22.5.5s-.22.5-.5.5v-1Zm2.17,1c-.28,0-.5-.22-.5-.5s.22-.5.5-.5v1Zm2.11-.95c.27.03.48.27.45.55-.03.28-.27.48-.55.45l.1-.99Zm1.73,1.36c-.26-.08-.41-.36-.33-.62.08-.26.36-.41.62-.33l-.29.96Zm2.19-.17c.24.13.33.43.2.68-.13.24-.43.34-.68.21l.47-.88Zm1.08,1.92c-.21-.18-.24-.49-.07-.7.18-.21.49-.24.7-.07l-.63.77Zm2.09.68c.18.21.14.53-.07.7-.21.18-.53.14-.7-.07l.77-.63Zm.26,2.18c-.13-.24-.04-.55.2-.68.24-.13.55-.04.68.21l-.88.47Zm1.67,1.43c.08.26-.07.54-.33.62-.26.08-.54-.07-.62-.33l.96-.29Zm-.6,2.12c-.03-.27.17-.52.45-.55.27-.03.52.17.55.45l-1,.1Zm1.05,1.94c0,.28-.22.5-.5.5s-.5-.22-.5-.5h1Zm-1,2.02c0-.28.22-.5.5-.5s.5.22.5.5h-1Zm1,2.02c0,.28-.22.5-.5.5s-.5-.22-.5-.5h1Zm-1,2.02c0-.28.22-.5.5-.5s.5.22.5.5h-1Zm1,2.02c0,.28-.22.5-.5.5s-.5-.22-.5-.5h1Zm-1,2.02c0-.28.22-.5.5-.5s.5.22.5.5h-1Zm1,2.02c0,.28-.22.5-.5.5s-.5-.22-.5-.5h1Zm-1,2.02c0-.28.22-.5.5-.5s.5.22.5.5h-1Zm1,2.02c0,.28-.22.5-.5.5s-.5-.22-.5-.5h1Zm-1,2.02c0-.28.22-.5.5-.5s.5.22.5.5h-1Zm1,2.02c0,.28-.22.5-.5.5s-.5-.22-.5-.5h1Zm-1,2.02c0-.28.22-.5.5-.5s.5.22.5.5h-1Zm1,2.02c0,.28-.22.5-.5.5s-.5-.22-.5-.5h1Zm-1,2.02c0-.28.22-.5.5-.5s.5.22.5.5h-1Zm1,2.02c0,.28-.22.5-.5.5s-.5-.22-.5-.5h1Zm-1,2.02c0-.28.22-.5.5-.5s.5.22.5.5h-1Zm1,2.02c0,.28-.22.5-.5.5s-.5-.22-.5-.5h1Zm-1,2.02c0-.28.22-.5.5-.5s.5.22.5.5h-1Zm1,2.02c0,.28-.22.5-.5.5s-.5-.22-.5-.5h1Zm-1,2.02c0-.28.22-.5.5-.5s.5.22.5.5h-1Zm1,2.02c0,.28-.22.5-.5.5s-.5-.22-.5-.5h1Zm-1,2.02c0-.28.22-.5.5-.5s.5.22.5.5h-1Zm1,2.02c0,.28-.22.5-.5.5s-.5-.22-.5-.5h1Zm-1,2.02c0-.28.22-.5.5-.5s.5.22.5.5h-1Zm1,2.02c0,.28-.22.5-.5.5s-.5-.22-.5-.5h1Zm-1,2.02c0-.28.22-.5.5-.5s.5.22.5.5h-1Zm1,2.02c0,.28-.22.5-.5.5s-.5-.22-.5-.5h1Zm-1,2.02c0-.28.22-.5.5-.5s.5.22.5.5h-1Zm1,2.02c0,.28-.22.5-.5.5s-.5-.22-.5-.5h1Zm-1,2.02c0-.28.22-.5.5-.5s.5.22.5.5h-1Zm1,2.02c0,.28-.22.5-.5.5s-.5-.22-.5-.5h1Zm-1,2.02c0-.28.22-.5.5-.5s.5.22.5.5h-1Zm1,2.02c0,.28-.22.5-.5.5s-.5-.22-.5-.5h1Zm-1,2.02c0-.28.22-.5.5-.5s.5.22.5.5h-1Zm1,2.02c0,.28-.22.5-.5.5s-.5-.22-.5-.5h1Zm-1,2.02c0-.28.22-.5.5-.5s.5.22.5.5h-1Zm1,2.02c0,.28-.22.5-.5.5s-.5-.22-.5-.5h1Zm-1,2.02c0-.28.22-.5.5-.5s.5.22.5.5h-1Zm1,2.02c0,.28-.22.5-.5.5s-.5-.22-.5-.5h1Zm-1,2.02c0-.28.22-.5.5-.5s.5.22.5.5h-1Zm1,2.02c0,.28-.22.5-.5.5s-.5-.22-.5-.5h1Zm-1,2.02c0-.28.22-.5.5-.5s.5.22.5.5h-1Zm1,2.02c0,.28-.22.5-.5.5s-.5-.22-.5-.5h1Zm-1,2.02c0-.28.22-.5.5-.5s.5.22.5.5h-1Zm1,2.02c0,.28-.22.5-.5.5s-.5-.22-.5-.5h1Zm-1,2.02c0-.28.22-.5.5-.5s.5.22.5.5h-1Zm1,2.02c0,.28-.22.5-.5.5s-.5-.22-.5-.5h1Zm-1,2.02c0-.28.22-.5.5-.5s.5.22.5.5h-1Zm1,2.02c0,.28-.22.5-.5.5s-.5-.22-.5-.5h1Zm-1,2.02c0-.28.22-.5.5-.5s.5.22.5.5h-1Zm1.05,1.94c.03.27-.17.52-.45.55-.27.03-.52-.17-.55-.45l1-.1Zm-.6,2.12c-.08-.26.07-.54.33-.62.26-.08.54.07.62.33l-.96.29Zm1.67,1.43c.13.24.04.55-.2.68-.24.13-.55.04-.68-.21l.88-.47Zm.26,2.18c-.18-.21-.14-.53.07-.7.21-.18.53-.15.7.07l-.77.63Zm2.09.68c.21.18.24.49.07.7-.18.21-.49.24-.7.07l.63-.77Zm1.08,1.92c-.24-.13-.33-.43-.2-.68.13-.24.43-.33.68-.2l-.47.88Zm2.19-.17c.26.08.41.36.33.62-.08.26-.36.41-.62.33l.29-.96Zm1.73,1.36c-.27-.03-.48-.27-.45-.55.03-.27.27-.48.55-.45l-.1,1Zm2.04-.95c.28,0,.5.22.5.5s-.22.5-.5.5v-1Zm2.02,1c-.28,0-.5-.22-.5-.5s.22-.5.5-.5v1Zm2.02-1c.28,0,.5.22.5.5s-.22.5-.5.5v-1Zm2.02,1c-.28,0-.5-.22-.5-.5s.22-.5.5-.5v1Zm2.02-1c.28,0,.5.22.5.5s-.22.5-.5.5v-1Zm2.02,1c-.28,0-.5-.22-.5-.5s.22-.5.5-.5v1Zm2.02-1c.28,0,.5.22.5.5s-.22.5-.5.5v-1Zm2.02,1c-.28,0-.5-.22-.5-.5s.22-.5.5-.5v1Zm2.02-1c.28,0,.5.22.5.5s-.22.5-.5.5v-1Zm2.02,1c-.28,0-.5-.22-.5-.5s.22-.5.5-.5v1Zm2.02-1c.28,0,.5.22.5.5s-.22.5-.5.5v-1Zm2.02,1c-.28,0-.5-.22-.5-.5s.22-.5.5-.5v1Zm2.01-1c.28,0,.5.22.5.5s-.22.5-.5.5v-1Zm2.02,1c-.28,0-.5-.22-.5-.5s.22-.5.5-.5v1Zm2.02-1c.28,0,.5.22.5.5s-.22.5-.5.5v-1Zm2.02,1c-.28,0-.5-.22-.5-.5s.22-.5.5-.5v1Zm2.02-1c.28,0,.5.22.5.5s-.22.5-.5.5v-1Zm2.02,1c-.28,0-.5-.22-.5-.5s.22-.5.5-.5v1Zm2.02-1c.28,0,.5.22.5.5s-.22.5-.5.5v-1Zm2.02,1c-.28,0-.5-.22-.5-.5s.22-.5.5-.5v1Zm2.02-1c.28,0,.5.22.5.5s-.22.5-.5.5v-1Zm2.02,1c-.28,0-.5-.22-.5-.5s.22-.5.5-.5v1Zm2.02-1c.28,0,.5.22.5.5s-.22.5-.5.5v-1Zm2.02,1c-.28,0-.5-.22-.5-.5s.22-.5.5-.5v1Zm2.02-1c.28,0,.5.22.5.5s-.22.5-.5.5v-1Zm2.02,1c-.28,0-.5-.22-.5-.5s.22-.5.5-.5v1Zm2.02-1c.28,0,.5.22.5.5s-.22.5-.5.5v-1Zm2.02,1c-.28,0-.5-.22-.5-.5s.22-.5.5-.5v1Zm2.02-1c.28,0,.5.22.5.5s-.22.5-.5.5v-1Zm2.02,1c-.28,0-.5-.22-.5-.5s.22-.5.5-.5v1Zm2.02-1c.28,0,.5.22.5.5s-.22.5-.5.5v-1Zm2.02,1c-.28,0-.5-.22-.5-.5s.22-.5.5-.5v1Zm2.02-1c.28,0,.5.22.5.5s-.22.5-.5.5v-1Zm2.02,1c-.28,0-.5-.22-.5-.5s.22-.5.5-.5v1Zm2.02-1c.28,0,.5.22.5.5s-.22.5-.5.5v-1Zm2.01,1c-.28,0-.5-.22-.5-.5s.22-.5.5-.5v1Zm2.02-1c.28,0,.5.22.5.5s-.22.5-.5.5v-1Zm2.02,1c-.28,0-.5-.22-.5-.5s.22-.5.5-.5v1Zm2.02-1c.28,0,.5.22.5.5s-.22.5-.5.5v-1Zm2.02,1c-.28,0-.5-.22-.5-.5s.22-.5.5-.5v1Zm2.02-1c.28,0,.5.22.5.5s-.22.5-.5.5v-1Zm2.02,1c-.28,0-.5-.22-.5-.5s.22-.5.5-.5v1Zm2.02-1c.28,0,.5.22.5.5s-.22.5-.5.5v-1Zm2.02,1c-.28,0-.5-.22-.5-.5s.22-.5.5-.5v1Zm2.02-1c.28,0,.5.22.5.5s-.22.5-.5.5v-1Zm2.02,1c-.28,0-.5-.22-.5-.5s.22-.5.5-.5v1Zm2.02-1c.28,0,.5.22.5.5s-.22.5-.5.5v-1Zm2.02,1c-.28,0-.5-.22-.5-.5s.22-.5.5-.5v1Zm2.02-1c.28,0,.5.22.5.5s-.22.5-.5.5v-1Zm2.02,1c-.28,0-.5-.22-.5-.5s.22-.5.5-.5v1Zm2.02-1c.28,0,.5.22.5.5s-.22.5-.5.5v-1Zm2.02,1c-.28,0-.5-.22-.5-.5s.22-.5.5-.5v1Zm2.02-1c.28,0,.5.22.5.5s-.22.5-.5.5v-1Zm2.02,1c-.28,0-.5-.22-.5-.5s.22-.5.5-.5v1Zm2.02-1c.28,0,.5.22.5.5s-.22.5-.5.5v-1Zm2.02,1c-.28,0-.5-.22-.5-.5s.22-.5.5-.5v1Zm2.02-1c.28,0,.5.22.5.5s-.22.5-.5.5v-1Zm2.02,1c-.28,0-.5-.22-.5-.5s.22-.5.5-.5v1Zm2.02-1c.28,0,.5.22.5.5s-.22.5-.5.5v-1Zm2.02,1c-.28,0-.5-.22-.5-.5s.22-.5.5-.5v1Zm2.01-1c.28,0,.5.22.5.5s-.22.5-.5.5v-1Zm2.02,1c-.28,0-.5-.22-.5-.5s.22-.5.5-.5v1Zm2.02-1c.28,0,.5.22.5.5s-.22.5-.5.5v-1Zm2.02,1c-.28,0-.5-.22-.5-.5s.22-.5.5-.5v1Zm2.02-1c.28,0,.5.22.5.5s-.22.5-.5.5v-1Zm2.02,1c-.28,0-.5-.22-.5-.5s.22-.5.5-.5v1Zm2.02-1c.28,0,.5.22.5.5s-.22.5-.5.5v-1Zm2.02,1c-.28,0-.5-.22-.5-.5s.22-.5.5-.5v1Zm2.02-1c.28,0,.5.22.5.5s-.22.5-.5.5v-1Zm2.02,1c-.28,0-.5-.22-.5-.5s.22-.5.5-.5v1Zm2.02-1c.28,0,.5.22.5.5s-.22.5-.5.5v-1Zm2.02,1c-.28,0-.5-.22-.5-.5s.22-.5.5-.5v1Zm2.02-1c.28,0,.5.22.5.5s-.22.5-.5.5v-1Zm2.02,1c-.28,0-.5-.22-.5-.5s.22-.5.5-.5v1Zm2.02-1c.28,0,.5.22.5.5s-.22.5-.5.5v-1Zm2.02,1c-.28,0-.5-.22-.5-.5s.22-.5.5-.5v1Zm2.02-1c.28,0,.5.22.5.5s-.22.5-.5.5v-1Zm2.02,1c-.28,0-.5-.22-.5-.5s.22-.5.5-.5v1Zm2.02-1c.28,0,.5.22.5.5s-.22.5-.5.5v-1Zm2.02,1c-.28,0-.5-.22-.5-.5s.22-.5.5-.5v1Zm2.02-1c.28,0,.5.22.5.5s-.22.5-.5.5v-1Zm2.02,1c-.28,0-.5-.22-.5-.5s.22-.5.5-.5v1Zm2.02-1c.28,0,.5.22.5.5s-.22.5-.5.5v-1Zm2.02,1c-.28,0-.5-.22-.5-.5s.22-.5.5-.5v1Zm2.02-1c.28,0,.5.22.5.5s-.22.5-.5.5v-1Zm2.02,1c-.28,0-.5-.22-.5-.5s.22-.5.5-.5v1Zm2.02-1c.28,0,.5.22.5.5s-.22.5-.5.5v-1Zm2.02,1c-.28,0-.5-.22-.5-.5s.22-.5.5-.5v1Zm2.02-1c.28,0,.5.22.5.5s-.22.5-.5.5v-1Zm2.02,1c-.28,0-.5-.22-.5-.5s.22-.5.5-.5v1Zm2.02-1c.28,0,.5.22.5.5s-.22.5-.5.5v-1Zm2.02,1c-.28,0-.5-.22-.5-.5s.22-.5.5-.5v1Zm2.02-1c.28,0,.5.22.5.5s-.22.5-.5.5v-1Zm2.02,1c-.28,0-.5-.22-.5-.5s.22-.5.5-.5v1ZM58,168.5h1.08v1h-1.08v-1Zm3.25,0h2.17v1h-2.17v-1Zm4.33,0h2.17v1h-2.17v-1Zm4.33,0h1.08v1h-1.08v-1Zm1.08,0c.35,0,.69.02,1.03.05l-.1.99c-.31-.03-.62-.04-.93-.04v-1Zm3.05.45c.66.2,1.3.47,1.9.79l-.47.88c-.54-.29-1.12-.53-1.72-.71l.29-.96Zm3.61,1.93c.53.44,1.02.92,1.46,1.46l-.77.63c-.4-.48-.84-.92-1.32-1.32l.63-.77Zm2.6,3.17c.32.6.59,1.24.79,1.9l-.96.29c-.18-.6-.42-1.18-.71-1.72l.88-.47Zm1.19,3.92c.03.34.05.68.05,1.03h-1c0-.32-.02-.63-.05-.93l1-.1Zm.05,1.03v1.01h-1v-1.01h1Zm0,3.03v2.02h-1v-2.02h1Zm0,4.04v2.02h-1v-2.02h1Zm0,4.04v2.02h-1v-2.02h1Zm0,4.04v2.02h-1v-2.02h1Zm0,4.04v2.02h-1v-2.02h1Zm0,4.04v2.02h-1v-2.02h1Zm0,4.04v2.02h-1v-2.02h1Zm0,4.04v2.02h-1v-2.02h1Zm0,4.04v2.02h-1v-2.02h1Zm0,4.04v2.02h-1v-2.02h1Zm0,4.04v2.02h-1v-2.02h1Zm0,4.04v2.02h-1v-2.02h1Zm0,4.04v2.02h-1v-2.02h1Zm0,4.04v2.02h-1v-2.02h1Zm0,4.04v2.02h-1v-2.02h1Zm0,4.04v2.02h-1v-2.02h1Zm0,4.04v2.02h-1v-2.02h1Zm0,4.04v2.02h-1v-2.02h1Zm0,4.04v2.02h-1v-2.02h1Zm0,4.04v2.02h-1v-2.02h1Zm0,4.04v2.02h-1v-2.02h1Zm0,4.04v2.02h-1v-2.02h1Zm0,4.04v2.02h-1v-2.02h1Zm0,4.04v2.02h-1v-2.02h1Zm0,4.04v1.01h-1v-1.01h1Zm0,1.01c0,.32.02.63.05.93l-1,.1c-.03-.34-.05-.68-.05-1.03h1Zm.41,2.76c.18.6.42,1.18.71,1.72l-.88.47c-.32-.6-.59-1.24-.79-1.9l.96-.29Zm1.75,3.27c.4.48.84.92,1.32,1.32l-.63.77c-.53-.44-1.02-.92-1.46-1.46l.77-.63Zm2.87,2.35c.54.29,1.12.53,1.72.71l-.29.96c-.66-.2-1.3-.47-1.9-.79l.47-.88Zm3.55,1.07c.31.03.62.05.93.05v1c-.35,0-.69-.02-1.03-.05l.1-1Zm.93.05h1.01v1h-1.01v-1Zm3.02,0h2.02v1h-2.02v-1Zm4.03,0h2.02v1h-2.02v-1Zm4.03,0h2.02v1h-2.02v-1Zm4.03,0h2.02v1h-2.02v-1Zm4.03,0h2.02v1h-2.02v-1Zm4.03,0h2.01v1h-2.01v-1Zm4.03,0h2.02v1h-2.02v-1Zm4.03,0h2.02v1h-2.02v-1Zm4.03,0h2.02v1h-2.02v-1Zm4.03,0h2.02v1h-2.02v-1Zm4.03,0h2.02v1h-2.02v-1Zm4.03,0h2.02v1h-2.02v-1Zm4.03,0h2.02v1h-2.02v-1Zm4.03,0h2.02v1h-2.02v-1Zm4.03,0h2.02v1h-2.02v-1Zm4.03,0h2.02v1h-2.02v-1Zm4.03,0h2.02v1h-2.02v-1Zm4.03,0h2.02v1h-2.02v-1Zm4.03,0h2.02v1h-2.02v-1Zm4.03,0h2.02v1h-2.02v-1Zm4.03,0h2.02v1h-2.02v-1Zm4.03,0h2.02v1h-2.02v-1Zm4.03,0h2.02v1h-2.02v-1Zm4.03,0h2.02v1h-2.02v-1Zm4.03,0h2.02v1h-2.02v-1Zm4.03,0h2.02v1h-2.02v-1Zm4.03,0h2.02v1h-2.02v-1Zm4.03,0h2.02v1h-2.02v-1Zm4.03,0h2.02v1h-2.02v-1Zm4.03,0h2.01v1h-2.01v-1Zm4.03,0h2.02v1h-2.02v-1Zm4.03,0h2.02v1h-2.02v-1Zm4.03,0h2.02v1h-2.02v-1Zm4.03,0h2.02v1h-2.02v-1Zm4.03,0h2.02v1h-2.02v-1Zm4.03,0h2.02v1h-2.02v-1Zm4.03,0h2.02v1h-2.02v-1Zm4.03,0h2.02v1h-2.02v-1Zm4.03,0h2.02v1h-2.02v-1Zm4.03,0h2.02v1h-2.02v-1Zm4.03,0h2.02v1h-2.02v-1Zm4.03,0h2.02v1h-2.02v-1Zm4.03,0h2.02v1h-2.02v-1Zm4.03,0h2.02v1h-2.02v-1Zm4.03,0h2.02v1h-2.02v-1Zm4.03,0h2.02v1h-2.02v-1Zm4.03,0h1.01v1h-1.01v-1Z"/>
  <path d="m115,40.5h26c5.25,0,9.5,4.25,9.5,9.5h0c0,5.25-4.25,9.5-9.5,9.5h-26c-5.25,0-9.5-4.25-9.5-9.5h0c0-5.25,4.25-9.5,9.5-9.5Z"/>
  <path class="cls-8" d="m115.42,45.95v.78h2.43v6.27h.91v-6.27h2.42v-.78h-5.76Zm6.15,7.05h3.59v-.76h-1.39v-3.63c0-.41-.2-.58-.56-.58h-1.29v.76h1.03v3.45h-1.38v.76Zm.98-6.49c0,.39.31.67.7.67s.72-.28.72-.67-.32-.67-.72-.67-.7.28-.7.67Zm3.63,6.49h.89v-2.06c0-1.33.49-2.25,1.54-2.25.74,0,.99.54.99,1.5v2.81h.89v-2.06c0-1.33.49-2.25,1.54-2.25.74,0,.99.54.99,1.5v2.81h.89v-2.92c0-1.33-.54-2.15-1.67-2.15-1.01,0-1.61.6-1.88,1.34-.17-.83-.65-1.34-1.49-1.34-.98,0-1.55.61-1.8,1.35v-1.25h-.89v4.97Zm8.83-2.55c0,1.47.82,2.65,2.44,2.65,1.53,0,2.19-.92,2.39-1.84h-.88c-.17.69-.67,1.13-1.52,1.13-1.03,0-1.54-.74-1.57-1.71h3.95v-.32c0-1.54-.96-2.43-2.43-2.43s-2.38.91-2.38,2.52Zm.87-.4c.07-.9.69-1.42,1.51-1.42.89,0,1.5.52,1.56,1.42h-3.07Z"/>
  <path class="cls-5" d="m115,40.5h26c5.25,0,9.5,4.25,9.5,9.5h0c0,5.25-4.25,9.5-9.5,9.5h-26c-5.25,0-9.5-4.25-9.5-9.5h0c0-5.25,4.25-9.5,9.5-9.5Z"/>
  <path class="cls-8" d="m10,160.5h38c5.25,0,9.5,4.25,9.5,9.5h0c0,5.25-4.25,9.5-9.5,9.5H10c-5.25,0-9.5-4.25-9.5-9.5h0c0-5.25,4.25-9.5,9.5-9.5Z"/>
  <path d="m10.72,173h2.27c1.74,0,3.57-.49,3.57-3.53s-1.83-3.52-3.57-3.52h-2.27v7.05Zm.91-.78v-5.49h1.36c1.24,0,2.66.2,2.66,2.74s-1.41,2.75-2.66,2.75h-1.36Zm5.81-.6c0,.52.22,1.48,1.68,1.48,1.23,0,1.81-.63,2.04-1.33v.63c0,.38.22.6.6.6h.91v-.76h-.73v-2.08c0-1.34-.77-2.23-2.21-2.23-1.3,0-2.07.74-2.18,1.87h.88c.08-.83.59-1.15,1.28-1.15.9,0,1.3.43,1.34,1.33l-1.95.19c-1.18.11-1.66.66-1.66,1.45Zm.88-.11c0-.48.32-.65.93-.71l1.8-.19c0,1-.71,1.76-1.79,1.76-.57,0-.94-.29-.94-.86Zm8.22.73h-1.76s0-3.45,0-3.45h1.56v-.76h-1.56v-1.53l-.89.27v1.26h-1.1v.76h1.1v3.51c0,.48.23.7.7.7h1.95v-.76Zm.82-.62c0,.52.22,1.48,1.68,1.48,1.23,0,1.81-.63,2.04-1.33v.63c0,.38.22.6.6.6h.91v-.76h-.73v-2.08c0-1.34-.77-2.23-2.21-2.23-1.3,0-2.07.74-2.18,1.87h.88c.08-.83.59-1.15,1.28-1.15.9,0,1.3.43,1.34,1.33l-1.95.19c-1.18.11-1.66.66-1.66,1.45Zm.88-.11c0-.48.32-.65.93-.71l1.8-.19c0,1-.71,1.76-1.79,1.76-.57,0-.94-.29-.94-.86Zm7.3,1.59c1.28,0,1.96-.51,1.96-1.41,0-.77-.51-1.18-1.35-1.42l-1.16-.33c-.49-.14-.71-.34-.71-.67,0-.37.39-.65,1.03-.65.76,0,1.18.38,1.18.98h.89c0-1.08-.8-1.67-2.08-1.67-1.18,0-1.9.49-1.9,1.36,0,.79.59,1.15,1.15,1.31l1.33.39c.52.14.73.34.73.68,0,.51-.36.73-1.06.73-.92,0-1.46-.41-1.46-1.23h-.89c0,1.23.86,1.93,2.34,1.93Zm2.87-2.65c0,1.47.82,2.65,2.44,2.65,1.53,0,2.19-.92,2.39-1.84h-.88c-.17.69-.67,1.13-1.52,1.13-1.03,0-1.54-.74-1.57-1.71h3.95v-.32c0-1.54-.96-2.43-2.43-2.43s-2.38.91-2.38,2.52Zm.87-.4c.07-.9.69-1.42,1.51-1.42.89,0,1.5.52,1.56,1.42h-3.07Zm8.24,2.19h-1.76s0-3.45,0-3.45h1.56v-.76h-1.56v-1.53l-.89.27v1.26h-1.1v.76h1.1v3.51c0,.48.23.7.7.7h1.95v-.76Z"/>
  <path class="cls-5" d="m10,160.5h38c5.25,0,9.5,4.25,9.5,9.5h0c0,5.25-4.25,9.5-9.5,9.5H10c-5.25,0-9.5-4.25-9.5-9.5h0c0-5.25,4.25-9.5,9.5-9.5Z"/>
  <path d="m115,280.5h32c5.25,0,9.5,4.25,9.5,9.5h0c0,5.25-4.25,9.5-9.5,9.5h-32c-5.25,0-9.5-4.25-9.5-9.5h0c0-5.25,4.25-9.5,9.5-9.5Z"/>
  <path class="cls-8" d="m121.4,291.12c0-.93-.56-1.59-1.7-1.88l-1.95-.49c-.77-.2-1.07-.58-1.07-1.08,0-.72.55-1.07,1.58-1.07,1.33,0,2,.56,2,1.68h.93c0-1.52-1.01-2.44-2.93-2.44-1.62,0-2.5.65-2.5,1.87,0,.84.46,1.48,1.57,1.77l1.97.51c.82.21,1.18.63,1.18,1.18,0,.78-.54,1.17-1.76,1.17-1.56,0-2.37-.64-2.37-1.99h-.92c0,1.77,1.13,2.76,3.27,2.76,1.88,0,2.7-.73,2.7-1.99Zm4.37,1.12h-1.76s0-3.45,0-3.45h1.56v-.76h-1.56v-1.53l-.89.27v1.26h-1.1v.76h1.1v3.51c0,.48.23.7.7.7h1.95v-.76Zm1.08-3.52v4.28h.89v-4.21h2.62v-.76h-2.81c-.47,0-.7.22-.7.69Zm3.95,1.73c0,1.47.82,2.65,2.44,2.65,1.53,0,2.19-.92,2.39-1.84h-.88c-.17.69-.67,1.13-1.52,1.13-1.03,0-1.54-.74-1.57-1.71h3.95v-.32c0-1.54-.96-2.43-2.43-2.43s-2.38.91-2.38,2.52Zm.87-.4c.07-.9.69-1.42,1.51-1.42.89,0,1.5.52,1.56,1.42h-3.07Zm7.21,3.05c1.28,0,1.96-.51,1.96-1.41,0-.77-.51-1.18-1.35-1.42l-1.16-.33c-.49-.14-.71-.34-.71-.67,0-.37.39-.65,1.03-.65.76,0,1.18.38,1.18.98h.89c0-1.08-.8-1.67-2.08-1.67-1.18,0-1.9.49-1.9,1.36,0,.79.59,1.15,1.15,1.31l1.33.39c.52.14.73.34.73.68,0,.51-.36.73-1.06.73-.92,0-1.46-.41-1.46-1.23h-.89c0,1.23.86,1.93,2.34,1.93Zm5.05,0c1.28,0,1.96-.51,1.96-1.41,0-.77-.51-1.18-1.35-1.42l-1.16-.33c-.49-.14-.71-.34-.71-.67,0-.37.39-.65,1.03-.65.76,0,1.18.38,1.18.98h.89c0-1.08-.8-1.67-2.08-1.67-1.18,0-1.9.49-1.9,1.36,0,.79.59,1.15,1.15,1.31l1.33.39c.52.14.73.34.73.68,0,.51-.36.73-1.06.73-.92,0-1.46-.41-1.46-1.23h-.89c0,1.23.86,1.93,2.34,1.93Z"/>
  <path class="cls-5" d="m115,280.5h32c5.25,0,9.5,4.25,9.5,9.5h0c0,5.25-4.25,9.5-9.5,9.5h-32c-5.25,0-9.5-4.25-9.5-9.5h0c0-5.25,4.25-9.5,9.5-9.5Z"/>
  <path class="cls-8" d="m272.85,169.35c.2-.2.2-.51,0-.71l-3.18-3.18c-.2-.2-.51-.2-.71,0-.19.2-.19.51,0,.71l2.83,2.83-2.83,2.83c-.19.2-.19.51,0,.71.2.2.51.2.71,0l3.18-3.18Zm-193.86.15c.28,0,.5-.22.5-.5s-.22-.5-.5-.5v1Zm1.98-1c-.28,0-.5.22-.5.5s.22.5.5.5v-1Zm1.98,1c.28,0,.5-.22.5-.5s-.22-.5-.5-.5v1Zm1.98-1c-.28,0-.5.22-.5.5s.22.5.5.5v-1Zm1.98,1c.28,0,.5-.22.5-.5s-.22-.5-.5-.5v1Zm1.98-1c-.28,0-.5.22-.5.5s.22.5.5.5v-1Zm1.98,1c.28,0,.5-.22.5-.5s-.22-.5-.5-.5v1Zm1.98-1c-.28,0-.5.22-.5.5s.22.5.5.5v-1Zm1.98,1c.28,0,.5-.22.5-.5s-.22-.5-.5-.5v1Zm1.98-1c-.28,0-.5.22-.5.5s.22.5.5.5v-1Zm1.98,1c.28,0,.5-.22.5-.5s-.22-.5-.5-.5v1Zm1.98-1c-.28,0-.5.22-.5.5s.22.5.5.5v-1Zm1.99,1c.28,0,.5-.22.5-.5s-.22-.5-.5-.5v1Zm1.98-1c-.28,0-.5.22-.5.5s.22.5.5.5v-1Zm1.99,1c.28,0,.5-.22.5-.5s-.22-.5-.5-.5v1Zm1.99-1c-.28,0-.5.22-.5.5s.22.5.5.5v-1Zm1.98,1c.28,0,.5-.22.5-.5s-.22-.5-.5-.5v1Zm1.99-1c-.28,0-.5.22-.5.5s.22.5.5.5v-1Zm1.99,1c.28,0,.5-.22.5-.5s-.22-.5-.5-.5v1Zm1.99-1c-.28,0-.5.22-.5.5s.22.5.5.5v-1Zm1.98,1c.28,0,.5-.22.5-.5s-.22-.5-.5-.5v1Zm1.99-1c-.28,0-.5.22-.5.5s.22.5.5.5v-1Zm1.99,1c.28,0,.5-.22.5-.5s-.22-.5-.5-.5v1Zm1.98-1c-.28,0-.5.22-.5.5s.22.5.5.5v-1Zm1.99,1c.28,0,.5-.22.5-.5s-.22-.5-.5-.5v1Zm1.99-1c-.28,0-.5.22-.5.5s.22.5.5.5v-1Zm1.98,1c.28,0,.5-.22.5-.5s-.22-.5-.5-.5v1Zm1.99-1c-.28,0-.5.22-.5.5s.22.5.5.5v-1Zm1.99,1c.28,0,.5-.22.5-.5s-.22-.5-.5-.5v1Zm1.98-1c-.28,0-.5.22-.5.5s.22.5.5.5v-1Zm1.99,1c.28,0,.5-.22.5-.5s-.22-.5-.5-.5v1Zm1.99-1c-.28,0-.5.22-.5.5s.22.5.5.5v-1Zm1.99,1c.28,0,.5-.22.5-.5s-.22-.5-.5-.5v1Zm1.98-1c-.28,0-.5.22-.5.5s.22.5.5.5v-1Zm1.99,1c.28,0,.5-.22.5-.5s-.22-.5-.5-.5v1Zm1.99-1c-.28,0-.5.22-.5.5s.22.5.5.5v-1Zm1.98,1c.28,0,.5-.22.5-.5s-.22-.5-.5-.5v1Zm1.99-1c-.28,0-.5.22-.5.5s.22.5.5.5v-1Zm1.99,1c.28,0,.5-.22.5-.5s-.22-.5-.5-.5v1Zm1.98-1c-.28,0-.5.22-.5.5s.22.5.5.5v-1Zm1.99,1c.28,0,.5-.22.5-.5s-.22-.5-.5-.5v1Zm1.99-1c-.28,0-.5.22-.5.5s.22.5.5.5v-1Zm1.99,1c.28,0,.5-.22.5-.5s-.22-.5-.5-.5v1Zm1.98-1c-.28,0-.5.22-.5.5s.22.5.5.5v-1Zm1.99,1c.28,0,.5-.22.5-.5s-.22-.5-.5-.5v1Zm1.99-1c-.28,0-.5.22-.5.5s.22.5.5.5v-1Zm1.98,1c.28,0,.5-.22.5-.5s-.22-.5-.5-.5v1Zm1.99-1c-.28,0-.5.22-.5.5s.22.5.5.5v-1Zm1.99,1c.28,0,.5-.22.5-.5s-.22-.5-.5-.5v1Zm1.98-1c-.28,0-.5.22-.5.5s.22.5.5.5v-1Zm1.99,1c.28,0,.5-.22.5-.5s-.22-.5-.5-.5v1Zm1.99-1c-.28,0-.5.22-.5.5s.22.5.5.5v-1Zm1.98,1c.28,0,.5-.22.5-.5s-.22-.5-.5-.5v1Zm1.99-1c-.28,0-.5.22-.5.5s.22.5.5.5v-1Zm1.99,1c.28,0,.5-.22.5-.5s-.22-.5-.5-.5v1Zm1.99-1c-.28,0-.5.22-.5.5s.22.5.5.5v-1Zm1.98,1c.28,0,.5-.22.5-.5s-.22-.5-.5-.5v1Zm1.99-1c-.28,0-.5.22-.5.5s.22.5.5.5v-1Zm1.99,1c.28,0,.5-.22.5-.5s-.22-.5-.5-.5v1Zm1.98-1c-.28,0-.5.22-.5.5s.22.5.5.5v-1Zm1.99,1c.28,0,.5-.22.5-.5s-.22-.5-.5-.5v1Zm1.99-1c-.28,0-.5.22-.5.5s.22.5.5.5v-1Zm1.98,1c.28,0,.5-.22.5-.5s-.22-.5-.5-.5v1Zm1.99-1c-.28,0-.5.22-.5.5s.22.5.5.5v-1Zm1.99,1c.28,0,.5-.22.5-.5s-.22-.5-.5-.5v1Zm1.99-1c-.28,0-.5.22-.5.5s.22.5.5.5v-1Zm1.98,1c.28,0,.5-.22.5-.5s-.22-.5-.5-.5v1Zm1.99-1c-.28,0-.5.22-.5.5s.22.5.5.5v-1Zm1.99,1c.28,0,.5-.22.5-.5s-.22-.5-.5-.5v1Zm1.98-1c-.28,0-.5.22-.5.5s.22.5.5.5v-1Zm1.99,1c.28,0,.5-.22.5-.5s-.22-.5-.5-.5v1Zm1.99-1c-.28,0-.5.22-.5.5s.22.5.5.5v-1Zm1.98,1c.28,0,.5-.22.5-.5s-.22-.5-.5-.5v1Zm1.99-1c-.28,0-.5.22-.5.5s.22.5.5.5v-1Zm1.99,1c.28,0,.5-.22.5-.5s-.22-.5-.5-.5v1Zm1.98-1c-.28,0-.5.22-.5.5s.22.5.5.5v-1Zm1.99,1c.28,0,.5-.22.5-.5s-.22-.5-.5-.5v1Zm1.99-1c-.28,0-.5.22-.5.5s.22.5.5.5v-1Zm1.99,1c.28,0,.5-.22.5-.5s-.22-.5-.5-.5v1Zm1.98-1c-.28,0-.5.22-.5.5s.22.5.5.5v-1Zm1.99,1c.28,0,.5-.22.5-.5s-.22-.5-.5-.5v1Zm1.99-1c-.28,0-.5.22-.5.5s.22.5.5.5v-1Zm1.98,1c.28,0,.5-.22.5-.5s-.22-.5-.5-.5v1Zm1.99-1c-.28,0-.5.22-.5.5s.22.5.5.5v-1Zm1.99,1c.28,0,.5-.22.5-.5s-.22-.5-.5-.5v1Zm1.98-1c-.28,0-.5.22-.5.5s.22.5.5.5v-1Zm1.99,1c.28,0,.5-.22.5-.5s-.22-.5-.5-.5v1Zm1.99-1c-.28,0-.5.22-.5.5s.22.5.5.5v-1Zm1.99,1c.28,0,.5-.22.5-.5s-.22-.5-.5-.5v1Zm1.98-1c-.28,0-.5.22-.5.5s.22.5.5.5v-1Zm1.98,1c.28,0,.5-.22.5-.5s-.22-.5-.5-.5v1Zm1.99-1c-.28,0-.5.22-.5.5s.22.5.5.5v-1Zm1.98,1c.28,0,.5-.22.5-.5s-.22-.5-.5-.5v1Zm1.98-1c-.28,0-.5.22-.5.5s.22.5.5.5v-1Zm1.98,1c.28,0,.5-.22.5-.5s-.22-.5-.5-.5v1Zm1.98-1c-.28,0-.5.22-.5.5s.22.5.5.5v-1Zm1.99,1c.28,0,.5-.22.5-.5s-.22-.5-.5-.5v1Zm1.98-1c-.28,0-.5.22-.5.5s.22.5.5.5v-1Zm-193.51,1h.99v-1h-.99v1Zm2.98,0h1.98v-1h-1.98v1Zm3.97,0h1.98v-1h-1.98v1Zm3.97,0h1.98v-1h-1.98v1Zm3.97,0h1.98v-1h-1.98v1Zm3.97,0h1.98v-1h-1.98v1Zm3.97,0h1.99v-1h-1.99v1Zm3.97,0h1.99v-1h-1.99v1Zm3.97,0h1.98v-1h-1.98v1Zm3.97,0h1.99v-1h-1.99v1Zm3.97,0h1.98v-1h-1.98v1Zm3.97,0h1.99v-1h-1.99v1Zm3.97,0h1.99v-1h-1.99v1Zm3.97,0h1.98v-1h-1.98v1Zm3.97,0h1.99v-1h-1.99v1Zm3.97,0h1.99v-1h-1.99v1Zm3.97,0h1.99v-1h-1.99v1Zm3.97,0h1.99v-1h-1.99v1Zm3.97,0h1.98v-1h-1.98v1Zm3.97,0h1.99v-1h-1.99v1Zm3.97,0h1.99v-1h-1.99v1Zm3.97,0h1.99v-1h-1.99v1Zm3.97,0h1.99v-1h-1.99v1Zm3.97,0h1.98v-1h-1.98v1Zm3.97,0h1.99v-1h-1.99v1Zm3.97,0h1.99v-1h-1.99v1Zm3.97,0h1.98v-1h-1.98v1Zm3.97,0h1.99v-1h-1.99v1Zm3.97,0h1.98v-1h-1.98v1Zm3.97,0h1.99v-1h-1.99v1Zm3.97,0h1.99v-1h-1.99v1Zm3.97,0h1.98v-1h-1.98v1Zm3.97,0h1.99v-1h-1.99v1Zm3.97,0h1.98v-1h-1.98v1Zm3.97,0h1.99v-1h-1.99v1Zm3.97,0h1.99v-1h-1.99v1Zm3.97,0h1.98v-1h-1.98v1Zm3.97,0h1.99v-1h-1.99v1Zm3.97,0h1.99v-1h-1.99v1Zm3.97,0h1.99v-1h-1.99v1Zm3.97,0h1.99v-1h-1.99v1Zm3.97,0h1.98v-1h-1.98v1Zm3.97,0h1.99v-1h-1.99v1Zm3.97,0h1.99v-1h-1.99v1Zm3.97,0h1.99v-1h-1.99v1Zm3.97,0h1.98v-1h-1.98v1Zm3.97,0h1.98v-1h-1.98v1Zm3.97,0h1.98v-1h-1.98v1Zm3.97,0h1.99v-1h-1.99v1Zm3.97,0h.99v-1h-.99v1Z"/>
  <path d="m115,159.5h12c5.25,0,9.5,4.25,9.5,9.5h0c0,5.25-4.25,9.5-9.5,9.5h-12c-5.25,0-9.5-4.25-9.5-9.5h0c0-5.25,4.25-9.5,9.5-9.5Z"/>
  <path class="cls-8" d="m115.72,164.95v7.05h.91v-3.08h4.02v3.08h.91v-7.05h-.91v3.18h-4.02v-3.18h-.91Zm7.1,2.77v4.28h.89v-4.21h2.62v-.76h-2.81c-.47,0-.7.22-.7.69Z"/>
  <path class="cls-5" d="m115,159.5h12c5.25,0,9.5,4.25,9.5,9.5h0c0,5.25-4.25,9.5-9.5,9.5h-12c-5.25,0-9.5-4.25-9.5-9.5h0c0-5.25,4.25-9.5,9.5-9.5Z"/>
  <rect x="178.5" y=".5" width="149" height="99" rx="4.5" ry="4.5"/>
  <path class="cls-8" d="m206.5,67.5c0,.28.22.5.5.5s.5-.22.5-.5h-1Zm8.25-25.56l-.41-.28.41.28Zm20.65-16.94l-.19-.46.19.46Zm26.58-2.62l-.1.49.1-.49Zm23.55,13.09c.28,0,.5-.22.5-.5v-4.5c0-.28-.22-.5-.5-.5s-.5.22-.5.5v4h-4c-.28,0-.5.22-.5.5s.22.5.5.5h4.5Zm-.35-1.54c-.2-.19-.52-.18-.71.01-.19.2-.18.52.02.71l.69-.72Zm-2.1-.57c.21.18.52.16.71-.04.18-.21.16-.52-.05-.71l-.66.75Zm-.83-2.01c-.21-.17-.53-.14-.7.07-.17.21-.14.53.07.7l.63-.78Zm-2.14-.4c.22.16.54.12.7-.1.16-.22.12-.53-.1-.7l-.6.8Zm-1-1.94c-.23-.15-.54-.1-.69.13s-.1.54.13.69l.56-.83Zm-2.17-.21c.23.15.54.07.69-.16.14-.23.07-.54-.16-.69l-.53.85Zm-1.16-1.84c-.24-.14-.55-.05-.68.19-.13.24-.05.55.19.68l.49-.87Zm-2.18-.03c.25.12.55.03.67-.22s.03-.55-.22-.67l-.45.89Zm-1.31-1.74c-.25-.11-.55,0-.66.25-.11.25,0,.55.25.66l.42-.91Zm-2.17.15c.26.1.55-.02.65-.28.1-.26-.02-.55-.27-.65l-.38.93Zm-1.45-1.62c-.26-.09-.55.04-.64.3s.04.55.3.64l.34-.94Zm-2.15.33c.26.08.54-.07.63-.33.08-.26-.07-.54-.33-.63l-.3.95Zm-1.58-1.5c-.27-.07-.54.09-.61.35-.07.27.09.54.36.61l.26-.97Zm-2.12.51c.27.06.54-.11.6-.38.06-.27-.11-.54-.38-.6l-.22.98Zm-1.7-1.36c-.27-.05-.53.13-.58.41-.05.27.13.53.4.58l.17-.98Zm-2.07.69c.27.04.53-.16.56-.43.04-.27-.15-.53-.43-.56l-.13.99Zm-1.81-1.21c-.27-.03-.52.18-.54.45-.03.27.18.52.45.54l.09-1Zm-2,.86c.27.01.51-.2.52-.47.01-.28-.2-.51-.47-.52l-.05,1Zm-1.91-1.05c-.28,0-.5.22-.5.5,0,.28.22.5.5.5v-1Zm-1.91,1.03c.28,0,.49-.24.48-.52,0-.28-.24-.49-.52-.48l.04,1Zm-1.99-.89c-.28.02-.48.26-.46.54.02.28.26.48.54.46l-.08-1Zm-1.83,1.18c.27-.03.47-.28.44-.56-.03-.27-.28-.47-.56-.44l.12.99Zm-2.06-.72c-.27.04-.46.3-.41.57.04.27.3.46.57.41l-.16-.99Zm-1.72,1.33c.27-.06.44-.32.39-.59-.06-.27-.32-.44-.59-.39l.2.98Zm-2.11-.54c-.27.07-.43.34-.36.61.07.27.34.43.61.36l-.24-.97Zm-1.6,1.47c.26-.08.42-.36.34-.62-.08-.26-.36-.42-.62-.34l.28.96Zm-2.15-.36c-.26.09-.4.37-.31.63.09.26.37.4.63.31l-.32-.95Zm-1.47,1.6c.26-.1.38-.39.28-.65-.1-.26-.39-.38-.65-.28l.36.93Zm-2.17-.18c-.25.11-.37.41-.26.66.11.25.41.37.66.26l-.4-.92Zm-1.33,1.72c.25-.12.35-.42.23-.67-.12-.25-.42-.35-.67-.23l.44.9Zm-2.18,0c-.24.13-.33.44-.2.68.13.24.44.33.68.2l-.48-.88Zm-1.18,1.83c.24-.14.31-.45.17-.69-.14-.24-.45-.31-.69-.17l.51.86Zm-2.17.18c-.23.15-.29.46-.14.69.15.23.46.29.69.14l-.55-.84Zm-1.03,1.92c.22-.16.28-.47.11-.7-.16-.22-.47-.27-.7-.11l.58.81Zm-2.15.36c-.22.17-.25.49-.08.7.17.22.49.25.7.08l-.62-.79Zm-.86,2c.21-.18.23-.5.05-.71-.18-.21-.49-.23-.7-.05l.65.76Zm-2.11.54c-.2.19-.21.5-.02.71.19.2.5.21.71.02l-.68-.73Zm-.69,2.07c.19-.2.19-.51,0-.71-.2-.19-.51-.19-.71,0l.71.7Zm-2.06.72c-.19.2-.17.52.03.71.21.19.52.17.71-.03l-.74-.67Zm-.51,2.12c.18-.21.15-.53-.06-.7-.21-.18-.53-.15-.7.06l.77.64Zm-1.99.89c-.17.22-.13.53.09.7.22.17.53.13.7-.09l-.79-.61Zm-.34,2.15c.16-.23.1-.54-.12-.7-.23-.16-.54-.1-.7.12l.82.57Zm-1.91,1.05c-.15.23-.08.54.15.69.23.15.54.08.69-.15l-.84-.54Zm-.15,2.17c.14-.24.06-.54-.18-.68-.24-.14-.54-.06-.68.18l.87.5Zm-1.81,1.21c-.13.24-.04.55.21.68.24.13.55.03.68-.21l-.89-.47Zm.03,2.18c.12-.25.01-.55-.24-.67-.25-.12-.55-.01-.67.24l.9.43Zm-1.7,1.36c-.11.25.01.55.27.66.26.11.55-.01.66-.27l-.92-.39Zm.21,2.17c.1-.26-.04-.55-.29-.64-.26-.1-.55.03-.64.29l.94.35Zm-1.58,1.5c-.09.26.06.54.32.63.26.09.54-.06.63-.32l-.95-.31Zm.39,2.14c.08-.27-.08-.54-.35-.62-.27-.07-.54.08-.62.35l.96.27Zm-1.45,1.62c-.06.27.1.54.37.6.27.06.54-.1.6-.37l-.97-.23Zm.57,2.1c.05-.27-.13-.53-.4-.59-.27-.05-.53.13-.59.4l.98.19Zm-1.31,1.74c-.04.27.15.53.42.57.27.04.53-.15.57-.42l-.99-.15Zm.75,2.05c.03-.27-.17-.52-.44-.55-.28-.03-.52.17-.55.44l.99.1Zm-1.16,1.84c-.02.28.19.51.47.53.28.02.51-.19.53-.47l-1-.06Zm.92,1.98c0-.28-.21-.5-.49-.51s-.5.21-.51.49l1,.02Zm78.37-31.92c-.23-.23-.46-.46-.7-.68l-.69.72c.23.22.46.44.68.67l.71-.71Zm-2.14-2.01c-.49-.43-.99-.85-1.49-1.26l-.63.78c.5.4.98.81,1.46,1.24l.66-.75Zm-3.04-2.46c-.52-.39-1.06-.77-1.6-1.13l-.56.83c.53.36,1.05.73,1.56,1.11l.6-.8Zm-3.24-2.2c-.56-.34-1.12-.67-1.68-.99l-.49.87c.56.31,1.11.64,1.65.97l.53-.85Zm-3.41-1.92c-.58-.3-1.17-.58-1.76-.85l-.42.91c.58.26,1.16.54,1.73.83l.45-.89Zm-3.56-1.62c-.6-.25-1.21-.48-1.83-.7l-.34.94c.6.22,1.2.44,1.79.68l.38-.93Zm-3.68-1.32c-.62-.19-1.25-.37-1.88-.54l-.26.97c.62.16,1.23.34,1.84.53l.3-.95Zm-3.78-1c-.32-.07-.64-.14-.96-.2l-.19.98c.31.06.62.13.94.2l.22-.98Zm-.96-.2c-.32-.06-.64-.12-.96-.18l-.17.98c.31.06.63.11.94.18l.19-.98Zm-2.89-.48c-.65-.09-1.3-.16-1.94-.22l-.09,1c.64.06,1.27.13,1.9.21l.13-.99Zm-3.9-.36c-.65-.03-1.3-.05-1.96-.05v1c.63,0,1.27.02,1.91.05l.05-1Zm-3.91-.03c-.65.02-1.3.06-1.95.11l.08,1c.64-.05,1.27-.08,1.91-.11l-.04-1Zm-3.9.3c-.65.08-1.29.17-1.94.27l.16.99c.63-.1,1.26-.19,1.9-.27l-.12-.99Zm-3.86.63c-.64.13-1.27.28-1.91.44l.24.97c.62-.16,1.24-.3,1.87-.43l-.2-.98Zm-3.79.95c-.62.18-1.25.38-1.86.59l.32.95c.6-.21,1.21-.4,1.82-.58l-.28-.96Zm-3.7,1.27c-.3.12-.61.24-.91.36l.38.92c.29-.12.59-.24.89-.36l-.36-.93Zm-.91.36c-.3.12-.6.25-.9.38l.4.92c.29-.13.59-.25.88-.38l-.38-.92Zm-2.67,1.21c-.59.29-1.17.59-1.74.9l.48.88c.56-.3,1.13-.6,1.7-.88l-.44-.9Zm-3.44,1.87c-.56.34-1.11.68-1.66,1.04l.55.84c.53-.35,1.07-.69,1.62-1.02l-.51-.86Zm-3.27,2.15c-.53.38-1.05.77-1.56,1.18l.62.79c.5-.39,1.01-.78,1.53-1.15l-.58-.81Zm-3.07,2.42c-.5.42-.98.86-1.46,1.3l.68.73c.47-.44.94-.86,1.43-1.28l-.65-.76Zm-2.86,2.67c-.46.46-.91.94-1.34,1.42l.74.67c.43-.47.87-.94,1.32-1.39l-.71-.7Zm-2.63,2.9c-.42.5-.82,1.01-1.22,1.53l.79.61c.39-.51.79-1.01,1.19-1.5l-.77-.64Zm-2.37,3.11c-.19.27-.37.54-.55.81l.83.56c.18-.27.36-.53.54-.79l-.82-.57Zm-.55.81c-.18.27-.36.54-.54.82l.84.54c.17-.27.35-.54.52-.8l-.83-.56Zm-1.55,2.49c-.33.56-.64,1.14-.95,1.71l.89.47c.3-.56.6-1.12.93-1.68l-.87-.5Zm-1.82,3.46c-.28.59-.54,1.19-.8,1.79l.92.39c.25-.59.51-1.17.78-1.75l-.9-.43Zm-1.52,3.6c-.23.61-.44,1.23-.65,1.85l.95.31c.2-.61.41-1.21.63-1.81l-.94-.35Zm-1.21,3.72c-.18.63-.34,1.26-.49,1.89l.97.23c.15-.62.31-1.24.48-1.85l-.96-.27Zm-.9,3.81c-.12.64-.23,1.28-.33,1.93l.99.15c.09-.63.2-1.26.32-1.89l-.98-.19Zm-.57,3.87c-.07.65-.12,1.3-.16,1.95l1,.06c.04-.64.09-1.27.16-1.91l-.99-.1Zm-.25,3.9c0,.33,0,.65,0,.98h1c0-.32,0-.64,0-.96l-1-.02Z"/>
  <path class="cls-7" d="m217,67.5c0-9.55,3.79-18.7,10.54-25.46,6.75-6.75,15.91-10.54,25.46-10.54s18.7,3.79,25.46,10.54,10.54,15.91,10.54,25.46"/>
  <circle class="cls-4" cx="278.5" cy="42" r="3"/>
  <path class="cls-8" d="m197.66,78.61c1.29,0,1.97-.56,1.97-1.49,0-.88-.58-1.21-1.55-1.53l-.72-.24c-.44-.15-1.02-.26-1.02-.81,0-.46.38-.75,1.03-.75.72,0,1.24.36,1.33,1.1h.81c-.13-1.18-.94-1.81-2.11-1.81s-1.86.58-1.86,1.48c0,.96.78,1.2,1.56,1.46l.77.26c.55.19.94.3.94.8,0,.53-.36.82-1.11.82-.8,0-1.43-.38-1.49-1.07h-.81c.07,1.12,1,1.78,2.26,1.78Zm4.92,0c.73,0,1.37-.31,1.72-.91l.07.8h.66v-5.3h-.83v3.22c-.01.8-.55,1.46-1.54,1.46-.75,0-1.28-.41-1.28-1.17v-3.51h-.83v3.54c0,1.08.74,1.87,2.03,1.87Zm4.64-.11v-3.22c0-.81.59-1.47,1.54-1.47.8,0,1.28.47,1.28,1.21v3.48h.83v-3.51c0-1.17-.76-1.91-1.9-1.91-.79,0-1.48.37-1.84.93l-.08-.81h-.66v5.3h.83Zm5.78,0v-2.78c0-1.09.65-1.73,1.77-1.73h.18v-.82h-.18c-.88,0-1.5.36-1.84,1.04l-.1-1.01h-.66v5.3h.83Zm3.32-6.19c.35,0,.61-.27.61-.62s-.26-.61-.61-.61-.62.26-.62.61.27.62.62.62Zm.41,6.19v-5.3h-.83v5.3h.83Zm3.34.11c1.29,0,1.97-.56,1.97-1.49,0-.88-.58-1.21-1.55-1.53l-.72-.24c-.44-.15-1.02-.26-1.02-.81,0-.46.38-.75,1.03-.75.72,0,1.24.36,1.33,1.1h.81c-.13-1.18-.94-1.81-2.11-1.81s-1.86.58-1.86,1.48c0,.96.78,1.2,1.56,1.46l.77.26c.55.19.94.3.94.8,0,.53-.36.82-1.11.82-.8,0-1.43-.38-1.49-1.07h-.81c.07,1.12,1,1.78,2.26,1.78Zm5.33,0c1.21,0,2.07-.69,2.31-1.78h-.81c-.22.69-.76,1.06-1.5,1.06-1.07,0-1.73-.77-1.78-1.9h4.11v-.23c-.03-1.7-.97-2.68-2.43-2.68-1.34,0-2.51.98-2.51,2.79,0,1.59,1.04,2.74,2.61,2.74Zm-1.73-3.31c.17-.95.79-1.5,1.63-1.5s1.41.57,1.56,1.5h-3.19Z"/>
  <path class="cls-8" d="m287.86,45.5v-7h-.83v.1c0,.84-.56,1.29-1.61,1.29h-.12v.82h.12c.73,0,1.27-.22,1.6-.66v5.45h.84Zm4.28.11c1.43,0,2.42-.98,2.42-2.39s-.96-2.35-2.29-2.35c-1.15,0-2,.7-2.24,1.53-.01-.13-.02-.25-.02-.4,0-1.66.74-2.84,2.12-2.84.85,0,1.51.58,1.61,1.41h.87c-.13-1.29-1.15-2.18-2.48-2.18-1.75,0-2.89,1.3-2.89,3.56,0,2.1.99,3.66,2.9,3.66Zm-.06-.76c-.82,0-1.64-.55-1.64-1.62s.84-1.64,1.66-1.64,1.6.53,1.6,1.63-.81,1.63-1.62,1.63Zm4.13-3.52c.36,0,.63-.27.63-.63s-.27-.62-.63-.62-.63.27-.63.62.27.63.63.63Zm0,4.27c.36,0,.63-.27.63-.63s-.27-.62-.63-.62-.63.27-.63.62.27.63.63.63Zm4.33.01c1.63,0,2.67-1.42,2.67-3.63s-1.04-3.59-2.67-3.59-2.67,1.4-2.67,3.59,1.04,3.63,2.67,3.63Zm0-.77c-1.1,0-1.81-1.12-1.81-2.86s.71-2.82,1.81-2.82,1.81,1.1,1.81,2.82-.71,2.86-1.81,2.86Zm6.4.77c1.63,0,2.67-1.42,2.67-3.63s-1.04-3.59-2.67-3.59-2.67,1.4-2.67,3.59,1.04,3.63,2.67,3.63Zm0-.77c-1.1,0-1.81-1.12-1.81-2.86s.71-2.82,1.81-2.82,1.81,1.1,1.81,2.82-.71,2.86-1.81,2.86Z"/>
  <rect class="cls-5" x="178.5" y=".5" width="149" height="99" rx="4.5" ry="4.5"/>
  <rect x="178.5" y="120.5" width="149" height="99" rx="4.5" ry="4.5"/>
  <circle class="cls-6" cx="216.93" cy="160.96" r="21"/>
  <path class="cls-8" d="m235.57,142.68c-.19.19-.19.51,0,.71.2.19.51.19.71,0l-.71-.71Zm7.93-6.72c0-.28-.22-.5-.5-.5h-4.5c-.28,0-.5.22-.5.5s.22.5.5.5h4v4c0,.28.22.5.5.5s.5-.22.5-.5v-4.5Zm-6.63,6.84c.2-.2.2-.51,0-.71-.2-.2-.51-.2-.71,0l.71.71Zm.47-1.89c-.2.19-.2.51,0,.71.19.2.51.2.71,0l-.71-.71Zm1.89-.47c.19-.19.19-.51,0-.71-.2-.2-.51-.2-.71,0l.71.71Zm.47-1.89c-.19.19-.19.51,0,.71.2.2.51.2.71,0l-.71-.71Zm1.89-.47c.2-.19.2-.51,0-.71-.19-.2-.51-.2-.71,0l.71.71Zm.47-1.89c-.2.2-.2.51,0,.71.19.2.51.2.71,0l-.71-.71Zm-5.78,7.19l.59-.59-.71-.71-.59.59.71.71Zm1.77-1.77l1.18-1.18-.71-.71-1.18,1.18.71.71Zm2.36-2.36l1.18-1.18-.71-.71-1.18,1.18.71.71Zm2.36-2.36l.59-.59-.71-.71-.59.59.71.71Z"/>
  <path class="cls-8" d="m198.65,143.39c.2.19.51.19.71,0,.19-.2.19-.51,0-.71l-.71.71Zm-6.72-7.93c-.28,0-.5.22-.5.5v4.5c0,.28.22.5.5.5s.5-.22.5-.5v-4h4c.28,0,.5-.22.5-.5s-.22-.5-.5-.5h-4.5Zm6.84,6.63c-.2-.2-.51-.2-.71,0-.2.19-.2.51,0,.71l.71-.71Zm-1.89-.47c.2.2.51.2.71,0,.2-.2.2-.51,0-.71l-.71.71Zm-.47-1.89c-.19-.2-.51-.2-.71,0-.19.2-.19.51,0,.71l.71-.71Zm-1.88-.47c.19.2.51.2.71,0,.19-.2.19-.51,0-.71l-.71.71Zm-.47-1.89c-.2-.2-.51-.2-.71,0-.2.2-.2.51,0,.71l.71-.71Zm-1.89-.47c.2.2.51.2.71,0,.2-.19.2-.51,0-.71l-.71.71Zm7.19,5.78l-.59-.59-.71.71.59.59.71-.71Zm-1.77-1.77l-1.18-1.18-.71.71,1.18,1.18.71-.71Zm-2.36-2.36l-1.18-1.18-.71.71,1.18,1.18.71-.71Zm-2.36-2.36l-.59-.59-.71.71.59.59.71-.71Z"/>
  <path class="cls-8" d="m235.57,177.32c-.19-.19-.19-.51,0-.71.2-.19.51-.19.71,0l-.71.71Zm7.93,6.72c0,.28-.22.5-.5.5h-4.5c-.28,0-.5-.22-.5-.5s.22-.5.5-.5h4v-4c0-.28.22-.5.5-.5s.5.22.5.5v4.5Zm-6.63-6.84c.2.2.2.51,0,.71-.2.2-.51.2-.71,0l.71-.71Zm.47,1.89c-.2-.19-.2-.51,0-.71.19-.2.51-.2.71,0l-.71.71Zm1.89.47c.19.19.19.51,0,.71-.2.2-.51.2-.71,0l.71-.71Zm.47,1.89c-.19-.19-.19-.51,0-.71.2-.2.51-.2.71,0l-.71.71Zm1.89.47c.2.19.2.51,0,.71-.19.2-.51.2-.71,0l.71-.71Zm.47,1.89c-.2-.2-.2-.51,0-.71.19-.2.51-.2.71,0l-.71.71Zm-5.78-7.19l.59.59-.71.71-.59-.59.71-.71Zm1.77,1.77l1.18,1.18-.71.71-1.18-1.18.71-.71Zm2.36,2.36l1.18,1.18-.71.71-1.18-1.18.71-.71Zm2.36,2.36l.59.59-.71.71-.59-.59.71-.71Z"/>
  <path class="cls-8" d="m198.65,176.61c.2-.19.51-.19.71,0,.19.2.19.51,0,.71l-.71-.71Zm-6.72,7.93c-.28,0-.5-.22-.5-.5v-4.5c0-.28.22-.5.5-.5s.5.22.5.5v4h4c.28,0,.5.22.5.5s-.22.5-.5.5h-4.5Zm6.84-6.63c-.2.2-.51.2-.71,0-.2-.19-.2-.51,0-.71l.71.71Zm-1.89.47c.2-.2.51-.2.71,0,.2.2.2.51,0,.71l-.71-.71Zm-.47,1.89c-.19.2-.51.2-.71,0-.19-.2-.19-.51,0-.71l.71.71Zm-1.88.47c.19-.2.51-.2.71,0,.19.2.19.51,0,.71l-.71-.71Zm-.47,1.89c-.2.2-.51.2-.71,0-.2-.2-.2-.51,0-.71l.71.71Zm-1.89.47c.2-.2.51-.2.71,0,.2.19.2.51,0,.71l-.71-.71Zm7.19-5.78l-.59.59-.71-.71.59-.59.71.71Zm-1.77,1.77l-1.18,1.18-.71-.71,1.18-1.18.71.71Zm-2.36,2.36l-1.18,1.18-.71-.71,1.18-1.18.71.71Zm-2.36,2.36l-.59.59-.71-.71.59-.59.71.71Z"/>
  <circle class="cls-6" cx="288" cy="160.96" r="21"/>
  <path class="cls-8" d="m306.5,143.04c0,.28.22.5.5.5h4.5c.28,0,.5-.22.5-.5s-.22-.5-.5-.5h-4v-4c0-.28-.22-.5-.5-.5s-.5.22-.5.5v4.5Zm7.92-6.72c.2-.19.2-.51,0-.71-.2-.19-.51-.19-.71,0l.71.71Zm-6.48,6.48c.2-.2.2-.51,0-.71-.2-.2-.51-.2-.71,0l.71.71Zm.47-1.89c-.2.19-.2.51,0,.71.2.2.51.2.71,0l-.71-.71Zm1.89-.47c.2-.19.2-.51,0-.71-.19-.2-.51-.2-.71,0l.71.71Zm.47-1.89c-.2.19-.2.51,0,.71.2.2.51.2.71,0l-.71-.71Zm1.89-.47c.19-.19.19-.51,0-.71-.2-.2-.51-.2-.71,0l.71.71Zm.47-1.89c-.19.2-.19.51,0,.71.2.2.51.2.71,0l-.71-.71Zm-5.77,7.19l.59-.59-.71-.71-.59.59.71.71Zm1.77-1.77l1.18-1.18-.71-.71-1.18,1.18.71.71Zm2.36-2.36l1.18-1.18-.71-.71-1.18,1.18.71.71Zm2.36-2.36l.59-.59-.71-.71-.59.59.71.71Z"/>
  <path class="cls-8" d="m270.07,143.54c.28,0,.5-.22.5-.5v-4.5c0-.28-.22-.5-.5-.5s-.5.22-.5.5v4h-4c-.28,0-.5.22-.5.5s.22.5.5.5h4.5Zm-6.72-7.93c-.2-.19-.51-.19-.71,0-.2.2-.2.51,0,.71l.71-.71Zm6.48,6.48c-.19-.2-.51-.2-.71,0-.19.19-.19.51,0,.71l.71-.71Zm-1.88-.47c.19.2.51.2.71,0,.19-.2.19-.51,0-.71l-.71.71Zm-.47-1.89c-.2-.2-.51-.2-.71,0-.2.2-.2.51,0,.71l.71-.71Zm-1.89-.47c.2.2.51.2.71,0,.2-.2.2-.51,0-.71l-.71.71Zm-.47-1.89c-.2-.2-.51-.2-.71,0-.2.2-.2.51,0,.71l.71-.71Zm-1.89-.47c.2.2.51.2.71,0,.2-.19.2-.51,0-.71l-.71.71Zm7.19,5.78l-.59-.59-.71.71.59.59.71-.71Zm-1.77-1.77l-1.18-1.18-.71.71,1.18,1.18.71-.71Zm-2.36-2.36l-1.18-1.18-.71.71,1.18,1.18.71-.71Zm-2.36-2.36l-.59-.59-.71.71.59.59.71-.71Z"/>
  <path class="cls-8" d="m306.5,176.96c0-.28.22-.5.5-.5h4.5c.28,0,.5.22.5.5s-.22.5-.5.5h-4v4c0,.28-.22.5-.5.5s-.5-.22-.5-.5v-4.5Zm7.92,6.72c.2.19.2.51,0,.71-.2.19-.51.19-.71,0l.71-.71Zm-6.48-6.48c.2.2.2.51,0,.71-.2.2-.51.2-.71,0l.71-.71Zm.47,1.89c-.2-.19-.2-.51,0-.71.2-.2.51-.2.71,0l-.71.71Zm1.89.47c.2.19.2.51,0,.71-.19.2-.51.2-.71,0l.71-.71Zm.47,1.89c-.2-.19-.2-.51,0-.71.2-.2.51-.2.71,0l-.71.71Zm1.89.47c.19.19.19.51,0,.71-.2.2-.51.2-.71,0l.71-.71Zm.47,1.89c-.19-.2-.19-.51,0-.71.2-.2.51-.2.71,0l-.71.71Zm-5.77-7.19l.59.59-.71.71-.59-.59.71-.71Zm1.77,1.77l1.18,1.18-.71.71-1.18-1.18.71-.71Zm2.36,2.36l1.18,1.18-.71.71-1.18-1.18.71-.71Zm2.36,2.36l.59.59-.71.71-.59-.59.71-.71Z"/>
  <path class="cls-8" d="m270.07,176.46c.28,0,.5.22.5.5v4.5c0,.28-.22.5-.5.5s-.5-.22-.5-.5v-4h-4c-.28,0-.5-.22-.5-.5s.22-.5.5-.5h4.5Zm-6.72,7.93c-.2.19-.51.19-.71,0-.2-.2-.2-.51,0-.71l.71.71Zm6.48-6.48c-.19.2-.51.2-.71,0-.19-.19-.19-.51,0-.71l.71.71Zm-1.88.47c.19-.2.51-.2.71,0,.19.2.19.51,0,.71l-.71-.71Zm-.47,1.89c-.2.2-.51.2-.71,0-.2-.2-.2-.51,0-.71l.71.71Zm-1.89.47c.2-.2.51-.2.71,0,.2.2.2.51,0,.71l-.71-.71Zm-.47,1.89c-.2.2-.51.2-.71,0-.2-.2-.2-.51,0-.71l.71.71Zm-1.89.47c.2-.2.51-.2.71,0,.2.19.2.51,0,.71l-.71-.71Zm7.19-5.78l-.59.59-.71-.71.59-.59.71.71Zm-1.77,1.77l-1.18,1.18-.71-.71,1.18-1.18.71.71Zm-2.36,2.36l-1.18,1.18-.71-.71,1.18-1.18.71.71Zm-2.36,2.36l-.59.59-.71-.71.59-.59.71.71Z"/>
  <rect class="cls-5" x="178.5" y="120.5" width="149" height="99" rx="4.5" ry="4.5"/>
  <rect x="178.5" y="240.5" width="149" height="99" rx="4.5" ry="4.5"/>
  <circle class="cls-6" cx="222.25" cy="280.25" r="21"/>
  <path class="cls-8" d="m205.46,319.75v-2.88c.38.62,1.05.99,1.86.99,1.4,0,2.38-1.14,2.38-2.79s-.98-2.74-2.38-2.74c-.86,0-1.56.42-1.94,1.08l-.09-.96h-.66v7.3h.83Zm1.73-2.61c-1.01,0-1.73-.87-1.73-2.11,0-1.17.72-1.98,1.72-1.98s1.66.83,1.66,2.02-.67,2.07-1.65,2.07Zm5.93.72c1.49,0,2.6-.98,2.6-2.81,0-1.5-.91-2.72-2.6-2.72-1.44,0-2.6.95-2.6,2.72,0,1.6.9,2.81,2.6,2.81Zm0-.72c-.96,0-1.75-.73-1.75-2.09,0-1.19.69-2,1.75-2s1.75.81,1.75,2-.62,2.09-1.75,2.09Zm5.67.72c1.29,0,1.97-.56,1.97-1.49,0-.88-.58-1.21-1.55-1.53l-.72-.24c-.44-.15-1.02-.26-1.02-.81,0-.46.38-.75,1.03-.75.72,0,1.24.36,1.33,1.1h.81c-.13-1.18-.94-1.81-2.11-1.81s-1.86.58-1.86,1.48c0,.96.78,1.2,1.56,1.46l.77.26c.55.19.94.3.94.8,0,.53-.36.82-1.11.82-.8,0-1.43-.38-1.49-1.07h-.81c.07,1.12,1,1.78,2.26,1.78Zm3.41-6.3c.35,0,.61-.27.61-.62s-.26-.61-.61-.61-.62.26-.62.61.27.62.62.62Zm.41,6.19v-5.3h-.83v5.3h.83Zm4.12,0v-.7h-.59c-.49,0-.75-.28-.75-.81v-3.09h1.43v-.7h-1.43v-1.81h-.83v1.81h-.98v.7h.98v3.09c0,.98.55,1.51,1.58,1.51h.59Zm1.49-6.19c.35,0,.61-.27.61-.62s-.26-.61-.61-.61-.62.26-.62.61.27.62.62.62Zm.41,6.19v-5.3h-.83v5.3h.83Zm3.96,0l2.21-5.3h-.9l-1.74,4.33-1.75-4.33h-.9l2.21,5.3h.87Zm5.24.11c1.21,0,2.07-.69,2.31-1.78h-.81c-.22.69-.76,1.06-1.5,1.06-1.07,0-1.73-.77-1.78-1.9h4.11v-.23c-.03-1.7-.97-2.68-2.43-2.68-1.34,0-2.51.98-2.51,2.79,0,1.59,1.04,2.74,2.61,2.74Zm-1.73-3.31c.17-.95.79-1.5,1.63-1.5s1.41.57,1.56,1.5h-3.19Z"/>
  <path class="cls-3" d="m304.25,280.75c0,1.8-2.09,3.28-2.52,4.94-.43,1.65.62,4.07-.23,5.57-.85,1.5-3.39,1.75-4.6,2.98-1.2,1.23-1.43,3.83-2.91,4.71-1.48.88-3.76-.23-5.43.23-1.67.46-3.07,2.58-4.82,2.58s-3.2-2.14-4.82-2.58c-1.61-.44-3.97.64-5.43-.23-1.46-.87-1.71-3.47-2.91-4.71-1.21-1.23-3.74-1.46-4.6-2.98s.22-3.85-.23-5.57c-.45-1.71-2.51-3.14-2.51-4.94s2.09-3.28,2.52-4.94c.43-1.65-.62-4.07.23-5.57.85-1.5,3.39-1.75,4.6-2.98,1.21-1.23,1.43-3.83,2.91-4.71,1.49-.88,3.76.23,5.43-.23,1.67-.46,3.07-2.58,4.82-2.58s3.21,2.14,4.82,2.58c1.61.44,3.97-.64,5.43.23,1.46.87,1.7,3.47,2.91,4.71,1.2,1.23,3.74,1.46,4.6,2.98.86,1.52-.22,3.85.23,5.57.45,1.71,2.52,3.14,2.52,4.94h0Z"/>
  <path class="cls-8" d="m265.44,317.25v-3.22c.01-.81.59-1.47,1.54-1.47.8,0,1.28.47,1.28,1.21v3.48h.83v-3.51c0-1.17-.76-1.91-1.9-1.91-.79,0-1.48.37-1.84.93l-.08-.81h-.66v5.3h.83Zm7.29.11c1.21,0,2.07-.69,2.31-1.78h-.81c-.22.69-.76,1.06-1.5,1.06-1.07,0-1.73-.77-1.78-1.9h4.11v-.23c-.03-1.7-.97-2.68-2.43-2.68-1.34,0-2.51.98-2.51,2.79,0,1.59,1.04,2.74,2.61,2.74Zm-1.73-3.31c.17-.95.79-1.5,1.63-1.5s1.41.57,1.56,1.5h-3.19Zm7.46,5.32c1.58,0,2.48-.92,2.48-2.26v-5.16h-.65l-.09.92c-.36-.64-1.05-1.04-1.9-1.04-1.4,0-2.42,1.1-2.42,2.69s1.01,2.64,2.42,2.64c.81,0,1.45-.36,1.82-.91v.86c0,.91-.57,1.56-1.66,1.56-.93,0-1.57-.48-1.57-1.11h-.83c0,1.12.97,1.81,2.4,1.81Zm-.04-2.93c-.99,0-1.68-.79-1.68-1.93s.69-1.96,1.68-1.96,1.7.8,1.7,1.94-.7,1.95-1.7,1.95Zm5.59.89c.92,0,1.52-.38,1.83-.99v.16c0,.49.3.75.87.75h.47v-.68h-.3c-.18,0-.27-.09-.27-.26v-2.58c0-1.12-.84-1.9-2.15-1.9s-2.2.73-2.3,1.77h.82c.09-.63.69-1.06,1.46-1.06s1.35.47,1.36,1.14c-.01.43-.71.42-1.52.5-1.06.11-2.24.34-2.24,1.56,0,.97.77,1.59,1.97,1.59Zm.12-.71c-.76,0-1.26-.35-1.26-.9,0-.68.73-.78,1.46-.86.65-.07,1.24-.13,1.47-.44v.69c0,.88-.68,1.51-1.67,1.51Zm6.6.63v-.7h-.59c-.49,0-.75-.28-.75-.81v-3.09h1.43v-.7h-1.43v-1.81h-.83v1.81h-.98v.7h.98v3.09c0,.98.55,1.51,1.58,1.51h.59Zm1.49-6.19c.35,0,.61-.27.61-.62s-.26-.61-.61-.61-.62.26-.62.61.27.62.62.62Zm.41,6.19v-5.3h-.83v5.3h.83Zm3.96,0l2.21-5.3h-.9l-1.74,4.33-1.75-4.33h-.9l2.21,5.3h.87Zm5.24.11c1.21,0,2.07-.69,2.31-1.78h-.81c-.22.69-.76,1.06-1.5,1.06-1.07,0-1.73-.77-1.78-1.9h4.11v-.23c-.03-1.7-.97-2.68-2.43-2.68-1.34,0-2.51.98-2.51,2.79,0,1.59,1.04,2.74,2.61,2.74Zm-1.73-3.31c.17-.95.79-1.5,1.63-1.5s1.41.57,1.56,1.5h-3.19Z"/>
  <rect class="cls-5" x="178.5" y="240.5" width="149" height="99" rx="4.5" ry="4.5"/>
  <text class="cls-9" transform="translate(229.74 207.11)"><tspan x="0" y="0">Pulse </tspan><tspan class="cls-1" x="27.77" y="0">r</tspan><tspan class="cls-11" x="31.38" y="0">a</tspan><tspan class="cls-10" x="37.05" y="0">t</tspan><tspan class="cls-2" x="40.75" y="0">e</tspan></text>
</svg>