<svg width="145" height="82" viewBox="0 0 145 82" fill="none" xmlns="http://www.w3.org/2000/svg">
<path d="M2.55925 11V4.04L7.31125 11H8.46325V2.6H7.45525V9.56L2.70325 2.6H1.55125V11H2.55925ZM12.3524 11.096C13.4564 11.096 14.1764 10.64 14.5484 9.908V10.1C14.5484 10.688 14.9084 11 15.5924 11H16.1564V10.184H15.7964C15.5804 10.184 15.4724 10.076 15.4724 9.872V6.776C15.4724 5.432 14.4644 4.496 12.8924 4.496C11.3804 4.496 10.2524 5.372 10.1324 6.62H11.1164C11.2244 5.864 11.9444 5.348 12.8684 5.348C13.8284 5.348 14.4884 5.912 14.5004 6.716C14.4884 7.232 13.6484 7.22 12.6764 7.316C11.4044 7.448 9.98838 7.724 9.98838 9.188C9.98838 10.352 10.9124 11.096 12.3524 11.096ZM12.4964 10.244C11.5844 10.244 10.9844 9.824 10.9844 9.164C10.9844 8.348 11.8604 8.228 12.7364 8.132C13.5164 8.048 14.2244 7.976 14.5004 7.604V8.432C14.5004 9.488 13.6844 10.244 12.4964 10.244ZM18.485 11V4.04L23.237 11H24.389V2.6H23.381V9.56L18.629 2.6H17.477V11H18.485ZM35.4662 7.688V6.848H25.9502V7.688H35.4662ZM38.0319 11V4.04L42.7839 11H43.9359V2.6H42.9279V9.56L38.1759 2.6H37.0239V11H38.0319ZM48.569 11.132C50.357 11.132 51.689 9.956 51.689 7.76C51.689 5.96 50.597 4.496 48.569 4.496C46.841 4.496 45.449 5.636 45.449 7.76C45.449 9.68 46.529 11.132 48.569 11.132ZM48.569 10.268C47.417 10.268 46.469 9.392 46.469 7.76C46.469 6.332 47.297 5.36 48.569 5.36C49.841 5.36 50.669 6.332 50.669 7.76C50.669 9.14 49.925 10.268 48.569 10.268ZM56.1397 11V10.16H55.4317C54.8437 10.16 54.5317 9.824 54.5317 9.188V5.48H56.2477V4.64H54.5317V2.468H53.5357V4.64H52.3597V5.48H53.5357V9.188C53.5357 10.364 54.1957 11 55.4317 11H56.1397ZM61.7848 13.712C61.1968 12.908 60.9088 11.816 60.9088 10.58C60.9088 7.256 63.1048 2.6 65.5048 0.848L65.4928 0.595999C62.2168 2.18 59.6488 6.356 59.6488 9.884C59.6488 11.744 60.5248 13.076 61.6648 13.964L61.7848 13.712ZM67.1337 3.272C67.5897 3.272 67.9017 2.972 67.9017 2.528C67.9017 2.072 67.5897 1.784 67.1337 1.784C66.6777 1.784 66.3657 2.072 66.3657 2.528C66.3657 2.972 66.6777 3.272 67.1337 3.272ZM66.9057 6.428C67.0977 5.888 67.2417 5.468 67.2417 5.156C67.2417 4.808 67.0377 4.496 66.6057 4.496C65.7297 4.496 64.8417 5.456 64.2777 6.524H64.5657C65.0337 5.768 65.5617 5.132 65.9097 5.132C66.0057 5.132 66.0777 5.18 66.0777 5.336C66.0777 5.504 65.8977 5.996 65.7657 6.392L64.6617 9.584C63.8817 11.888 63.4617 12.896 62.8137 12.896C62.3937 12.896 62.2137 12.44 61.7457 12.44C61.3617 12.44 61.0017 12.764 61.0017 13.136C61.0017 13.424 61.2057 13.64 61.6377 13.64C63.6417 13.64 64.9857 12.068 65.7897 9.68L66.9057 6.428ZM68.4927 11.168C69.4647 11.168 70.4127 9.944 71.7087 7.352H71.8167L71.0607 9.368C70.8807 9.848 70.7367 10.136 70.7367 10.4C70.7367 10.844 70.9527 11.18 71.5887 11.18C72.5607 11.18 73.3407 9.968 73.7847 8.888H73.4967C73.1007 9.764 72.5607 10.52 72.1167 10.52C71.9607 10.52 71.9007 10.436 71.9007 10.256C71.9007 10.076 72.0567 9.668 72.1527 9.392L73.7967 4.64H72.4047C72.3687 5.54 71.6487 7.028 71.1567 7.94C70.2327 9.704 69.5247 10.328 69.0927 10.328C68.9367 10.328 68.8407 10.208 68.8527 9.944C68.8887 9.404 69.5487 7.976 70.1847 6.416C70.4127 5.876 70.5927 5.456 70.5927 5.156C70.5927 4.796 70.3887 4.484 69.9567 4.484C69.0807 4.484 68.1807 5.456 67.6287 6.512H67.9167C68.3727 5.756 68.9007 5.12 69.2607 5.12C69.3567 5.12 69.4167 5.168 69.4167 5.324C69.4167 5.504 69.2247 5.984 69.0807 6.38C68.4807 7.7 67.6287 9.416 67.6287 10.316C67.6287 10.808 67.9287 11.168 68.4927 11.168ZM75.6273 11.168C76.7793 11.168 77.6433 10.328 77.6433 9.236C77.6433 8.66 77.3913 8.276 76.9353 7.568L76.6353 7.076C76.3113 6.608 76.0953 6.188 76.0953 5.768C76.0953 5.18 76.4553 4.856 76.9353 4.856C77.4033 4.856 77.5833 5.12 77.7033 5.456C77.7873 5.744 77.8833 5.936 78.1353 5.936C78.3993 5.936 78.6513 5.72 78.6513 5.396C78.6513 4.988 78.1833 4.436 77.2233 4.436C76.0713 4.436 75.0993 5.216 75.0993 6.344C75.0993 6.944 75.3633 7.376 75.8073 8.036L76.1313 8.54C76.4313 8.96 76.6473 9.308 76.6473 9.764C76.6473 10.328 76.3713 10.736 75.8193 10.736C75.3273 10.736 75.0513 10.448 74.8353 9.884C74.7153 9.548 74.6313 9.392 74.3913 9.392C74.1033 9.392 73.8752 9.608 73.8752 9.932C73.8752 10.592 74.6793 11.168 75.6273 11.168ZM81.4409 5.024H82.6169L82.7369 4.64H81.5609L82.1249 3.104H81.7289C81.2009 4.088 80.6369 4.64 79.5209 4.7L79.3889 5.024H80.2889L78.8489 9.14C78.6929 9.584 78.5729 9.992 78.5729 10.316C78.5729 10.796 78.8129 11.108 79.4009 11.108C80.4689 11.108 81.4169 9.944 81.9809 8.612H81.6929C81.2129 9.584 80.5649 10.388 80.0249 10.388C79.8209 10.388 79.7729 10.268 79.7729 10.076C79.7729 9.848 79.8929 9.5 80.0009 9.152L81.4409 5.024ZM84.5258 0.848C85.1138 1.652 85.4018 2.744 85.4018 3.98C85.4018 7.292 83.2058 11.96 80.8058 13.712L80.8178 13.964C84.0938 12.38 86.6618 8.204 86.6618 4.676C86.6618 2.816 85.7738 1.484 84.6458 0.595999L84.5258 0.848ZM92.45 11.096C93.554 11.096 94.274 10.64 94.646 9.908V10.1C94.646 10.688 95.006 11 95.69 11H96.254V10.184H95.894C95.678 10.184 95.57 10.076 95.57 9.872V6.776C95.57 5.432 94.562 4.496 92.99 4.496C91.478 4.496 90.35 5.372 90.23 6.62H91.214C91.322 5.864 92.042 5.348 92.966 5.348C93.926 5.348 94.586 5.912 94.598 6.716C94.586 7.232 93.746 7.22 92.774 7.316C91.502 7.448 90.086 7.724 90.086 9.188C90.086 10.352 91.01 11.096 92.45 11.096ZM92.594 10.244C91.682 10.244 91.082 9.824 91.082 9.164C91.082 8.348 91.958 8.228 92.834 8.132C93.614 8.048 94.322 7.976 94.598 7.604V8.432C94.598 9.488 93.782 10.244 92.594 10.244ZM101.278 11V4.04L106.03 11H107.182V2.6H106.174V9.56L101.422 2.6H100.27V11H101.278ZM111.335 11.132C112.211 11.132 112.979 10.76 113.399 10.04L113.483 11H114.275V4.64H113.279V8.504C113.267 9.464 112.619 10.256 111.431 10.256C110.531 10.256 109.895 9.764 109.895 8.852V4.64H108.899V8.888C108.899 10.184 109.787 11.132 111.335 11.132ZM116.906 11V7.136C116.918 6.164 117.614 5.372 118.802 5.372C119.654 5.372 120.182 5.924 120.182 6.776V11H121.166V7.136C121.178 6.164 121.874 5.372 123.062 5.372C123.914 5.372 124.442 5.924 124.442 6.776V11H125.438V6.74C125.438 5.444 124.574 4.496 123.23 4.496C122.258 4.496 121.382 5.012 120.974 5.756C120.65 4.988 119.93 4.496 118.97 4.496C118.058 4.496 117.23 4.94 116.798 5.624L116.702 4.64H115.91V11H116.906ZM130.26 11.132C131.94 11.132 133.116 9.764 133.116 7.784C133.116 5.84 131.94 4.496 130.26 4.496C129.3 4.496 128.496 4.94 128.028 5.636V2H127.032V11H127.824L127.932 9.788C128.364 10.616 129.216 11.132 130.26 11.132ZM130.104 10.268C128.892 10.268 128.028 9.224 128.028 7.736C128.028 6.332 128.892 5.36 130.092 5.36C131.28 5.36 132.084 6.356 132.084 7.784C132.084 9.248 131.28 10.268 130.104 10.268ZM137.233 11.132C138.685 11.132 139.717 10.304 140.005 8.996H139.033C138.769 9.824 138.121 10.268 137.233 10.268C135.949 10.268 135.157 9.344 135.097 7.988H140.029V7.712C139.993 5.672 138.865 4.496 137.113 4.496C135.505 4.496 134.101 5.672 134.101 7.844C134.101 9.752 135.349 11.132 137.233 11.132ZM135.157 7.16C135.361 6.02 136.105 5.36 137.113 5.36C138.133 5.36 138.805 6.044 138.985 7.16H135.157ZM142.335 11V7.664C142.335 6.356 143.115 5.588 144.459 5.588H144.675V4.604H144.459C143.403 4.604 142.659 5.036 142.251 5.852L142.131 4.64H141.339V11H142.335Z" fill="white"/>
<path d="M34.5792 61V60.244H31.9192V58.851H34.2712V58.116H31.9192V56.856H34.5162V56.1H31.0862V61H34.5792ZM36.2055 61V57.556L37.5635 61H38.2985L39.6565 57.549V61H40.4965V56.1H39.4605L37.9345 59.992L36.4015 56.1H35.3655V61H36.2055ZM43.7368 61.105C45.2488 61.105 46.1938 60.034 46.1938 58.536C46.1938 56.996 45.1928 55.995 43.7368 55.995C42.2318 55.995 41.2938 57.052 41.2938 58.536C41.2938 60.097 42.2878 61.105 43.7368 61.105ZM43.7368 60.342C42.7638 60.342 42.1478 59.642 42.1478 58.536C42.1478 57.444 42.7638 56.751 43.7368 56.751C44.7168 56.751 45.3398 57.444 45.3398 58.536C45.3398 59.642 44.7168 60.342 43.7368 60.342ZM48.9242 61V56.856H50.5552V56.1H46.4462V56.856H48.0842V61H48.9242ZM52.1059 61V56.1H51.2659V61H52.1059ZM55.3374 61.105C56.8494 61.105 57.7944 60.034 57.7944 58.536C57.7944 56.996 56.7934 55.995 55.3374 55.995C53.8324 55.995 52.8944 57.052 52.8944 58.536C52.8944 60.097 53.8884 61.105 55.3374 61.105ZM55.3374 60.342C54.3644 60.342 53.7484 59.642 53.7484 58.536C53.7484 57.444 54.3644 56.751 55.3374 56.751C56.3174 56.751 56.9404 57.444 56.9404 58.536C56.9404 59.642 56.3174 60.342 55.3374 60.342ZM59.4272 61V57.311L61.8562 61H62.7662V56.1H61.9262V59.789L59.4972 56.1H58.5872V61H59.4272ZM66.1537 61V59.152H67.5887C67.8127 59.152 67.9737 59.257 68.0437 59.453L68.6107 61H69.5067L68.8767 59.313C68.7577 59.012 68.5267 58.816 68.2047 58.753C68.8557 58.585 69.2827 58.088 69.2827 57.486C69.2827 56.667 68.6387 56.1 67.7077 56.1H65.3137V61H66.1537ZM66.1537 56.856H67.6657C68.1417 56.856 68.4497 57.164 68.4497 57.612C68.4497 58.039 68.1837 58.41 67.6657 58.41H66.1537V56.856ZM73.6739 61V60.244H71.0139V58.851H73.3659V58.116H71.0139V56.856H73.6109V56.1H70.1809V61H73.6739ZM76.7002 61.105C77.9812 61.105 78.8352 60.384 79.0592 59.11H78.1982C78.0442 59.887 77.4912 60.342 76.7002 60.342C75.7132 60.342 75.0972 59.656 75.0972 58.536C75.0972 57.444 75.7132 56.751 76.7002 56.751C77.4772 56.751 78.0442 57.22 78.1982 57.99H79.0592C78.8492 56.737 77.9742 55.995 76.7002 55.995C75.1742 55.995 74.2362 57.052 74.2362 58.536C74.2362 60.069 75.1952 61.105 76.7002 61.105ZM82.0796 61.105C83.5916 61.105 84.5366 60.034 84.5366 58.536C84.5366 56.996 83.5356 55.995 82.0796 55.995C80.5746 55.995 79.6366 57.052 79.6366 58.536C79.6366 60.097 80.6306 61.105 82.0796 61.105ZM82.0796 60.342C81.1066 60.342 80.4906 59.642 80.4906 58.536C80.4906 57.444 81.1066 56.751 82.0796 56.751C83.0596 56.751 83.6826 57.444 83.6826 58.536C83.6826 59.642 83.0596 60.342 82.0796 60.342ZM87.4434 61.105C88.4584 61.105 89.1024 60.482 89.2004 59.502H89.2144V61H89.9564V59.348C89.9564 58.753 89.6134 58.438 88.9834 58.438H87.3104V59.145H88.7874C88.7874 59.845 88.2904 60.342 87.5274 60.342C86.5894 60.342 85.9664 59.649 85.9664 58.536C85.9664 57.437 86.5824 56.751 87.5624 56.751C88.3394 56.751 88.9064 57.22 89.0604 57.99H89.9214C89.7114 56.751 88.8364 55.995 87.5624 55.995C86.0434 55.995 85.1054 57.052 85.1054 58.536C85.1054 60.097 86.0714 61.105 87.4434 61.105ZM91.686 61V57.311L94.115 61H95.025V56.1H94.185V59.789L91.756 56.1H90.846V61H91.686ZM96.8881 61V56.1H96.0481V61H96.8881ZM100.071 61V56.856H101.702V56.1H97.5926V56.856H99.2306V61H100.071ZM103.252 61V56.1H102.412V61H103.252ZM106.484 61.105C107.996 61.105 108.941 60.034 108.941 58.536C108.941 56.996 107.94 55.995 106.484 55.995C104.979 55.995 104.041 57.052 104.041 58.536C104.041 60.097 105.035 61.105 106.484 61.105ZM106.484 60.342C105.511 60.342 104.895 59.642 104.895 58.536C104.895 57.444 105.511 56.751 106.484 56.751C107.464 56.751 108.087 57.444 108.087 58.536C108.087 59.642 107.464 60.342 106.484 60.342ZM110.574 61V57.311L113.003 61H113.913V56.1H113.073V59.789L110.644 56.1H109.734V61H110.574ZM33.2259 70.077C33.7369 70.077 34.1849 69.86 34.4299 69.44L34.4789 70H34.9409V66.29H34.3599V68.544C34.3529 69.104 33.9749 69.566 33.2819 69.566C32.7569 69.566 32.3859 69.279 32.3859 68.747V66.29H31.8049V68.768C31.8049 69.524 32.3229 70.077 33.2259 70.077ZM37.2805 70.077C38.1835 70.077 38.6595 69.685 38.6595 69.034C38.6595 68.418 38.2535 68.187 37.5745 67.963L37.0705 67.795C36.7625 67.69 36.3565 67.613 36.3565 67.228C36.3565 66.906 36.6225 66.703 37.0775 66.703C37.5815 66.703 37.9455 66.955 38.0085 67.473H38.5755C38.4845 66.647 37.9175 66.206 37.0985 66.206C36.2865 66.206 35.7965 66.612 35.7965 67.242C35.7965 67.914 36.3425 68.082 36.8885 68.264L37.4275 68.446C37.8125 68.579 38.0855 68.656 38.0855 69.006C38.0855 69.377 37.8335 69.58 37.3085 69.58C36.7485 69.58 36.3075 69.314 36.2655 68.831H35.6985C35.7475 69.615 36.3985 70.077 37.2805 70.077ZM39.6679 65.667C39.9129 65.667 40.0949 65.478 40.0949 65.233C40.0949 64.988 39.9129 64.806 39.6679 64.806C39.4229 64.806 39.2339 64.988 39.2339 65.233C39.2339 65.478 39.4229 65.667 39.6679 65.667ZM39.9549 70V66.29H39.3739V70H39.9549ZM41.4862 70V67.746C41.4932 67.179 41.8992 66.717 42.5642 66.717C43.1242 66.717 43.4602 67.046 43.4602 67.564V70H44.0412V67.543C44.0412 66.724 43.5092 66.206 42.7112 66.206C42.1582 66.206 41.6752 66.465 41.4232 66.857L41.3672 66.29H40.9052V70H41.4862ZM46.5691 71.484C47.6751 71.484 48.3051 70.84 48.3051 69.902V66.29H47.8501L47.7871 66.934C47.5351 66.486 47.0521 66.206 46.4571 66.206C45.4771 66.206 44.7631 66.976 44.7631 68.089C44.7631 69.181 45.4701 69.937 46.4571 69.937C47.0241 69.937 47.4721 69.685 47.7311 69.3V69.902C47.7311 70.539 47.3321 70.994 46.5691 70.994C45.9181 70.994 45.4701 70.658 45.4701 70.217H44.8891C44.8891 71.001 45.5681 71.484 46.5691 71.484ZM46.5411 69.433C45.8481 69.433 45.3651 68.88 45.3651 68.082C45.3651 67.27 45.8481 66.71 46.5411 66.71C47.2411 66.71 47.7311 67.27 47.7311 68.068C47.7311 68.873 47.2411 69.433 46.5411 69.433ZM51.706 70V67.872H54.394V70H55.234V65.1H54.394V67.116H51.706V65.1H50.866V70H51.706ZM59.7389 70V69.244H57.0789V67.851H59.4309V67.116H57.0789V65.856H59.6759V65.1H56.2459V70H59.7389ZM61.0082 70L61.5052 68.789H63.6262L64.1232 70H64.9912L62.9822 65.1H62.1422L60.1402 70H61.0082ZM62.5692 66.185L63.3252 68.047H61.8062L62.5692 66.185ZM66.4648 70V68.152H67.8998C68.1238 68.152 68.2848 68.257 68.3548 68.453L68.9218 70H69.8178L69.1878 68.313C69.0688 68.012 68.8378 67.816 68.5158 67.753C69.1668 67.585 69.5938 67.088 69.5938 66.486C69.5938 65.667 68.9498 65.1 68.0188 65.1H65.6248V70H66.4648ZM66.4648 65.856H67.9768C68.4528 65.856 68.7608 66.164 68.7608 66.612C68.7608 67.039 68.4948 67.41 67.9768 67.41H66.4648V65.856ZM72.662 70V65.856H74.293V65.1H70.184V65.856H71.822V70H72.662ZM77.3681 70V68.152H78.8031C79.0271 68.152 79.1881 68.257 79.2581 68.453L79.8251 70H80.7211L80.0911 68.313C79.9721 68.012 79.7411 67.816 79.4191 67.753C80.0701 67.585 80.4971 67.088 80.4971 66.486C80.4971 65.667 79.8531 65.1 78.9221 65.1H76.5281V70H77.3681ZM77.3681 65.856H78.8801C79.3561 65.856 79.6641 66.164 79.6641 66.612C79.6641 67.039 79.3981 67.41 78.8801 67.41H77.3681V65.856ZM81.8783 70L82.3753 68.789H84.4963L84.9933 70H85.8613L83.8523 65.1H83.0123L81.0103 70H81.8783ZM83.4393 66.185L84.1953 68.047H82.6763L83.4393 66.185ZM87.9403 70V65.856H89.5713V65.1H85.4623V65.856H87.1003V70H87.9403ZM93.775 70V69.244H91.115V67.851H93.467V67.116H91.115V65.856H93.712V65.1H90.282V70H93.775ZM97.8497 70C99.3057 70 100.321 68.985 100.321 67.522C100.321 66.094 99.3057 65.1 97.8497 65.1H96.0857V70H97.8497ZM96.9257 65.856H97.9057C98.8157 65.856 99.4527 66.563 99.4527 67.522C99.4527 68.537 98.8157 69.244 97.9057 69.244H96.9257V65.856ZM101.333 70L101.83 68.789H103.951L104.448 70H105.316L103.307 65.1H102.467L100.465 70H101.333ZM102.894 66.185L103.65 68.047H102.131L102.894 66.185ZM107.395 70V65.856H109.026V65.1H104.917V65.856H106.555V70H107.395ZM109.495 70L109.992 68.789H112.113L112.61 70H113.478L111.469 65.1H110.629L108.627 70H109.495ZM111.056 66.185L111.812 68.047H110.293L111.056 66.185ZM16.5789 79V75.78H17.7829V75.29H16.5789V74.772C16.5789 74.429 16.7469 74.24 17.0549 74.24H17.8809V73.75H17.0549C16.3689 73.75 15.9979 74.107 15.9979 74.772V75.29H15.3119V75.78H15.9979V79H16.5789ZM18.996 79V77.054C18.996 76.291 19.451 75.843 20.235 75.843H20.361V75.269H20.235C19.619 75.269 19.185 75.521 18.947 75.997L18.877 75.29H18.415V79H18.996ZM22.4864 79.077C23.5294 79.077 24.3064 78.391 24.3064 77.11C24.3064 76.06 23.6694 75.206 22.4864 75.206C21.4784 75.206 20.6664 75.871 20.6664 77.11C20.6664 78.23 21.2964 79.077 22.4864 79.077ZM22.4864 78.573C21.8144 78.573 21.2614 78.062 21.2614 77.11C21.2614 76.277 21.7444 75.71 22.4864 75.71C23.2284 75.71 23.7114 76.277 23.7114 77.11C23.7114 77.915 23.2774 78.573 22.4864 78.573ZM25.6473 79V76.746C25.6543 76.179 26.0603 75.717 26.7533 75.717C27.2503 75.717 27.5583 76.039 27.5583 76.536V79H28.1323V76.746C28.1393 76.179 28.5453 75.717 29.2383 75.717C29.7353 75.717 30.0433 76.039 30.0433 76.536V79H30.6243V76.515C30.6243 75.759 30.1203 75.206 29.3363 75.206C28.7693 75.206 28.2583 75.507 28.0203 75.941C27.8313 75.493 27.4113 75.206 26.8513 75.206C26.3193 75.206 25.8363 75.465 25.5843 75.864L25.5283 75.29H25.0663V79H25.6473ZM34.3024 79.056C34.9464 79.056 35.3664 78.79 35.5834 78.363V78.475C35.5834 78.818 35.7934 79 36.1924 79H36.5214V78.524H36.3114C36.1854 78.524 36.1224 78.461 36.1224 78.342V76.536C36.1224 75.752 35.5344 75.206 34.6174 75.206C33.7354 75.206 33.0774 75.717 33.0074 76.445H33.5814C33.6444 76.004 34.0644 75.703 34.6034 75.703C35.1634 75.703 35.5484 76.032 35.5554 76.501C35.5484 76.802 35.0584 76.795 34.4914 76.851C33.7494 76.928 32.9234 77.089 32.9234 77.943C32.9234 78.622 33.4624 79.056 34.3024 79.056ZM34.3864 78.559C33.8544 78.559 33.5044 78.314 33.5044 77.929C33.5044 77.453 34.0154 77.383 34.5264 77.327C34.9814 77.278 35.3944 77.236 35.5554 77.019V77.502C35.5554 78.118 35.0794 78.559 34.3864 78.559ZM40.663 79L41.65 75.339L42.644 79H43.561L44.947 74.1H44.072L43.05 77.782L42.042 74.1H41.258L40.257 77.775L39.235 74.1H38.36L39.746 79H40.663ZM49.0406 79V78.244H46.3806V76.851H48.7326V76.116H46.3806V74.856H48.9776V74.1H45.5476V79H49.0406ZM50.3099 79L50.8069 77.789H52.9279L53.4249 79H54.2929L52.2839 74.1H51.4439L49.4419 79H50.3099ZM51.8709 75.185L52.6269 77.047H51.1079L51.8709 75.185ZM55.7665 79V77.152H57.2015C57.4255 77.152 57.5865 77.257 57.6565 77.453L58.2235 79H59.1195L58.4895 77.313C58.3705 77.012 58.1395 76.816 57.8175 76.753C58.4685 76.585 58.8955 76.088 58.8955 75.486C58.8955 74.667 58.2515 74.1 57.3205 74.1H54.9265V79H55.7665ZM55.7665 74.856H57.2785C57.7545 74.856 58.0625 75.164 58.0625 75.612C58.0625 76.039 57.7965 76.41 57.2785 76.41H55.7665V74.856ZM60.2767 79L60.7737 77.789H62.8947L63.3917 79H64.2597L62.2507 74.1H61.4107L59.4087 79H60.2767ZM61.8377 75.185L62.5937 77.047H61.0747L61.8377 75.185ZM67.2593 79C68.1903 79 68.8343 78.454 68.8343 77.67C68.8343 77.047 68.4003 76.585 67.7213 76.48C68.3233 76.333 68.7293 75.899 68.7293 75.339C68.7293 74.604 68.1063 74.1 67.2173 74.1H64.8933V79H67.2593ZM65.7263 74.849H67.2523C67.6303 74.849 67.8963 75.108 67.8963 75.472C67.8963 75.864 67.6093 76.144 67.1893 76.144H65.7263V74.849ZM65.7263 76.872H67.2243C67.6723 76.872 67.9803 77.152 67.9803 77.551C67.9803 77.943 67.7213 78.244 67.3013 78.244H65.7263V76.872ZM72.9628 79V78.244H70.4638V74.1H69.6238V79H72.9628ZM77.1978 79V78.244H74.5378V76.851H76.8898V76.116H74.5378V74.856H77.1348V74.1H73.7048V79H77.1978ZM81.5106 79.105C82.6306 79.105 83.3376 78.545 83.3376 77.656C83.3376 76.732 82.6096 76.48 81.9166 76.263L81.1746 76.032C80.6986 75.878 80.2716 75.773 80.2716 75.346C80.2716 74.968 80.6216 74.744 81.1606 74.744C81.8956 74.744 82.3016 75.115 82.3366 75.668H83.1906C83.1276 74.632 82.3716 73.995 81.1886 73.995C80.1036 73.995 79.4386 74.583 79.4386 75.388C79.4386 76.347 80.3346 76.599 80.9086 76.774L81.7066 77.012C82.1826 77.159 82.4836 77.313 82.4836 77.698C82.4836 78.111 82.1476 78.356 81.5106 78.356C80.7266 78.356 80.2366 78.02 80.1596 77.488H79.2986C79.3616 78.461 80.2226 79.105 81.5106 79.105ZM84.9286 79V75.556L86.2866 79H87.0216L88.3796 75.549V79H89.2196V74.1H88.1836L86.6576 77.992L85.1246 74.1H84.0886V79H84.9286ZM90.724 79L91.221 77.789H93.342L93.839 79H94.707L92.698 74.1H91.858L89.856 79H90.724ZM92.285 75.185L93.041 77.047H91.522L92.285 75.185ZM96.1806 79V77.152H97.6156C97.8396 77.152 98.0006 77.257 98.0706 77.453L98.6376 79H99.5336L98.9036 77.313C98.7846 77.012 98.5536 76.816 98.2316 76.753C98.8826 76.585 99.3096 76.088 99.3096 75.486C99.3096 74.667 98.6656 74.1 97.7346 74.1H95.3406V79H96.1806ZM96.1806 74.856H97.6926C98.1686 74.856 98.4766 75.164 98.4766 75.612C98.4766 76.039 98.2106 76.41 97.6926 76.41H96.1806V74.856ZM102.378 79V74.856H104.009V74.1H99.8998V74.856H101.538V79H102.378ZM106.602 79L107.589 75.339L108.583 79H109.5L110.886 74.1H110.011L108.989 77.782L107.981 74.1H107.197L106.196 77.775L105.174 74.1H104.299L105.685 79H106.602ZM111.451 79L111.948 77.789H114.069L114.566 79H115.434L113.425 74.1H112.585L110.583 79H111.451ZM113.012 75.185L113.768 77.047H112.249L113.012 75.185ZM117.513 79V74.856H119.144V74.1H115.035V74.856H116.673V79H117.513ZM121.862 79.105C123.143 79.105 123.997 78.384 124.221 77.11H123.36C123.206 77.887 122.653 78.342 121.862 78.342C120.875 78.342 120.259 77.656 120.259 76.536C120.259 75.444 120.875 74.751 121.862 74.751C122.639 74.751 123.206 75.22 123.36 75.99H124.221C124.011 74.737 123.136 73.995 121.862 73.995C120.336 73.995 119.398 75.052 119.398 76.536C119.398 78.069 120.357 79.105 121.862 79.105ZM125.862 79V76.872H128.55V79H129.39V74.1H128.55V76.116H125.862V74.1H125.022V79H125.862Z" fill="white"/>
<line x1="73.25" y1="19.25" x2="73.25" y2="48.75" stroke="white" stroke-width="0.5" stroke-linecap="round"/>
</svg>
