<svg width="30" height="30" viewBox="0 0 30 30" fill="none" xmlns="http://www.w3.org/2000/svg">
<path d="M8.625 14.3056V17.7778M8.625 14.3056V5.97222C8.625 4.82163 9.57639 3.88889 10.75 3.88889C11.9236 3.88889 12.875 4.82163 12.875 5.97222M8.625 14.3056C8.625 13.155 7.67361 12.2222 6.5 12.2222C5.3264 12.2222 4.375 13.155 4.375 14.3056V17.0833C4.375 22.8363 9.13197 27.5 15 27.5C20.868 27.5 25.625 22.8363 25.625 17.0833V10.1389C25.625 8.9883 24.6736 8.05556 23.5 8.05556C22.3264 8.05556 21.375 8.9883 21.375 10.1389M12.875 5.97222V13.6111M12.875 5.97222V4.58333C12.875 3.43274 13.8264 2.5 15 2.5C16.1736 2.5 17.125 3.43274 17.125 4.58333V5.97222M17.125 5.97222V13.6111M17.125 5.97222C17.125 4.82163 18.0764 3.88889 19.25 3.88889C20.4236 3.88889 21.375 4.82163 21.375 5.97222V10.1389M21.375 10.1389V13.6111" stroke="white" stroke-linecap="round" stroke-linejoin="round"/>
</svg>
